<mxfile host="Electron" agent="Mozilla/5.0 (Windows NT 10.0; Win64; x64) AppleWebKit/537.36 (KHTML, like Gecko) draw.io/24.7.5 Chrome/126.0.6478.183 Electron/31.3.0 Safari/537.36" version="24.7.5">
  <diagram name="Page-1" id="edf60f1a-56cd-e834-aa8a-f176f3a09ee4">
    <mxGraphModel dx="5785" dy="2960" grid="1" gridSize="9" guides="1" tooltips="1" connect="1" arrows="1" fold="1" page="1" pageScale="1" pageWidth="1100" pageHeight="850" background="none" math="0" shadow="0">
      <root>
        <mxCell id="0" />
        <mxCell id="1" parent="0" />
        <mxCell id="60e70716793133e9-33" value="ΝΑΙ" style="edgeStyle=orthogonalEdgeStyle;rounded=0;html=1;labelBackgroundColor=none;startSize=5;endArrow=classicThin;endFill=1;endSize=5;jettySize=auto;orthogonalLoop=1;strokeWidth=1;fontFamily=Verdana;fontSize=8;entryX=0;entryY=0.5;entryDx=0;entryDy=0;" parent="1" source="60e70716793133e9-5" target="kOZsztwYuCCZvmPycqAU-18" edge="1">
          <mxGeometry x="-0.7778" y="10" relative="1" as="geometry">
            <mxPoint as="offset" />
            <mxPoint x="350" y="250" as="targetPoint" />
          </mxGeometry>
        </mxCell>
        <mxCell id="60e70716793133e9-37" value="ΟΧΙ" style="edgeStyle=orthogonalEdgeStyle;rounded=0;html=1;labelBackgroundColor=none;startSize=5;endArrow=classicThin;endFill=1;endSize=5;jettySize=auto;orthogonalLoop=1;strokeWidth=1;fontFamily=Verdana;fontSize=8;entryX=0.5;entryY=0;entryDx=0;entryDy=0;" parent="1" source="60e70716793133e9-5" target="kOZsztwYuCCZvmPycqAU-106" edge="1">
          <mxGeometry x="-0.5" y="10" relative="1" as="geometry">
            <mxPoint as="offset" />
            <mxPoint x="250" y="320" as="targetPoint" />
          </mxGeometry>
        </mxCell>
        <mxCell id="60e70716793133e9-5" value="ΥΠΑΡΧΕΙ ΑΡΧΕΙΟ;" style="rhombus;whiteSpace=wrap;html=1;rounded=0;shadow=1;labelBackgroundColor=none;strokeWidth=1;fontFamily=Verdana;fontSize=8;align=center;" parent="1" vertex="1">
          <mxGeometry x="200" y="220" width="100" height="60" as="geometry" />
        </mxCell>
        <mxCell id="60e70716793133e9-34" value="ΝΑΙ" style="edgeStyle=orthogonalEdgeStyle;rounded=0;html=1;labelBackgroundColor=none;startSize=5;endArrow=classicThin;endFill=1;endSize=5;jettySize=auto;orthogonalLoop=1;strokeWidth=1;fontFamily=Verdana;fontSize=8" parent="1" source="60e70716793133e9-7" target="60e70716793133e9-8" edge="1">
          <mxGeometry x="-0.6667" y="10" relative="1" as="geometry">
            <mxPoint as="offset" />
          </mxGeometry>
        </mxCell>
        <mxCell id="kOZsztwYuCCZvmPycqAU-13" style="edgeStyle=orthogonalEdgeStyle;rounded=0;orthogonalLoop=1;jettySize=auto;html=1;entryX=0.5;entryY=0;entryDx=0;entryDy=0;" parent="1" source="60e70716793133e9-7" target="kOZsztwYuCCZvmPycqAU-10" edge="1">
          <mxGeometry relative="1" as="geometry" />
        </mxCell>
        <mxCell id="kOZsztwYuCCZvmPycqAU-14" value="&lt;font style=&quot;font-size: 8px;&quot;&gt;ΟΧΙ&lt;/font&gt;" style="edgeLabel;html=1;align=center;verticalAlign=middle;resizable=0;points=[];" parent="kOZsztwYuCCZvmPycqAU-13" vertex="1" connectable="0">
          <mxGeometry x="-0.5766" y="2" relative="1" as="geometry">
            <mxPoint x="8" as="offset" />
          </mxGeometry>
        </mxCell>
        <mxCell id="60e70716793133e9-7" value="ΤΟ ΑΡΧΕΙΟ&amp;nbsp;&lt;div&gt;ΕΙΝΑΙ ΑΔΕΙΟ;&lt;/div&gt;" style="rhombus;whiteSpace=wrap;html=1;rounded=0;shadow=1;labelBackgroundColor=none;strokeWidth=1;fontFamily=Verdana;fontSize=8;align=center;" parent="1" vertex="1">
          <mxGeometry x="490" y="220" width="100" height="60" as="geometry" />
        </mxCell>
        <mxCell id="kOZsztwYuCCZvmPycqAU-27" style="edgeStyle=orthogonalEdgeStyle;rounded=0;orthogonalLoop=1;jettySize=auto;html=1;entryX=0;entryY=0.5;entryDx=0;entryDy=0;" parent="1" source="60e70716793133e9-8" target="kOZsztwYuCCZvmPycqAU-26" edge="1">
          <mxGeometry relative="1" as="geometry" />
        </mxCell>
        <mxCell id="kOZsztwYuCCZvmPycqAU-30" style="edgeStyle=orthogonalEdgeStyle;rounded=0;orthogonalLoop=1;jettySize=auto;html=1;entryX=0.5;entryY=1;entryDx=0;entryDy=0;" parent="1" source="60e70716793133e9-8" target="kOZsztwYuCCZvmPycqAU-106" edge="1">
          <mxGeometry relative="1" as="geometry">
            <Array as="points">
              <mxPoint x="705" y="420" />
              <mxPoint x="250" y="420" />
            </Array>
          </mxGeometry>
        </mxCell>
        <mxCell id="60e70716793133e9-8" value="ΕΜΦΑΝΙΣΗ ΕΙΔΟΠΟΙΗΣΗΣ ΟΤΙ ΤΟ ΑΡΧΕΙΟ ΕΙΝΑΙ ΑΔΕΙΟ ΚΑΙ ΕΜΦΑΝΙΣΗ ΚΟΥΜΠΙΟΥ &#39;ΝΕΟΣ ΧΗΣΤΗΣ&#39;" style="rounded=1;whiteSpace=wrap;html=1;shadow=1;labelBackgroundColor=none;strokeWidth=1;fontFamily=Verdana;fontSize=8;align=center;" parent="1" vertex="1">
          <mxGeometry x="650" y="220" width="110" height="60" as="geometry" />
        </mxCell>
        <mxCell id="kOZsztwYuCCZvmPycqAU-8" style="edgeStyle=orthogonalEdgeStyle;rounded=0;orthogonalLoop=1;jettySize=auto;html=1;entryX=0.5;entryY=0;entryDx=0;entryDy=0;" parent="1" source="kOZsztwYuCCZvmPycqAU-3" target="kOZsztwYuCCZvmPycqAU-7" edge="1">
          <mxGeometry relative="1" as="geometry" />
        </mxCell>
        <mxCell id="kOZsztwYuCCZvmPycqAU-3" value="Start" style="strokeWidth=1;html=1;shape=mxgraph.flowchart.terminator;whiteSpace=wrap;rounded=0;shadow=1;labelBackgroundColor=none;fontFamily=Verdana;fontSize=8;align=center;" parent="1" vertex="1">
          <mxGeometry x="220" y="-60" width="60" height="30" as="geometry" />
        </mxCell>
        <mxCell id="kOZsztwYuCCZvmPycqAU-107" style="edgeStyle=orthogonalEdgeStyle;rounded=0;orthogonalLoop=1;jettySize=auto;html=1;entryX=0.5;entryY=0;entryDx=0;entryDy=0;" parent="1" source="kOZsztwYuCCZvmPycqAU-7" target="kOZsztwYuCCZvmPycqAU-20" edge="1">
          <mxGeometry relative="1" as="geometry" />
        </mxCell>
        <mxCell id="kOZsztwYuCCZvmPycqAU-7" value="&lt;font style=&quot;font-size: 9px;&quot;&gt;ΠΑΡΑΘΥΡΟ 1&lt;/font&gt;" style="ellipse;whiteSpace=wrap;html=1;aspect=fixed;" parent="1" vertex="1">
          <mxGeometry x="210" y="10" width="80" height="80" as="geometry" />
        </mxCell>
        <mxCell id="kOZsztwYuCCZvmPycqAU-23" style="edgeStyle=orthogonalEdgeStyle;rounded=0;orthogonalLoop=1;jettySize=auto;html=1;entryX=1;entryY=0.5;entryDx=0;entryDy=0;" parent="1" source="kOZsztwYuCCZvmPycqAU-10" target="kOZsztwYuCCZvmPycqAU-15" edge="1">
          <mxGeometry relative="1" as="geometry" />
        </mxCell>
        <mxCell id="kOZsztwYuCCZvmPycqAU-25" value="&lt;font style=&quot;font-size: 8px;&quot;&gt;ΟΧΙ&lt;/font&gt;" style="edgeLabel;html=1;align=center;verticalAlign=middle;resizable=0;points=[];" parent="kOZsztwYuCCZvmPycqAU-23" vertex="1" connectable="0">
          <mxGeometry x="-0.0643" relative="1" as="geometry">
            <mxPoint x="9" y="-10" as="offset" />
          </mxGeometry>
        </mxCell>
        <mxCell id="kOZsztwYuCCZvmPycqAU-32" style="edgeStyle=orthogonalEdgeStyle;rounded=0;orthogonalLoop=1;jettySize=auto;html=1;entryX=0.5;entryY=0;entryDx=0;entryDy=0;curved=0;strokeColor=default;jumpStyle=arc;" parent="1" source="kOZsztwYuCCZvmPycqAU-10" target="kOZsztwYuCCZvmPycqAU-31" edge="1">
          <mxGeometry relative="1" as="geometry" />
        </mxCell>
        <mxCell id="kOZsztwYuCCZvmPycqAU-104" value="&lt;font style=&quot;font-size: 9px;&quot;&gt;ΝΑΙ&lt;/font&gt;" style="edgeLabel;html=1;align=center;verticalAlign=middle;resizable=0;points=[];" parent="kOZsztwYuCCZvmPycqAU-32" vertex="1" connectable="0">
          <mxGeometry x="-0.7111" relative="1" as="geometry">
            <mxPoint x="20" y="23" as="offset" />
          </mxGeometry>
        </mxCell>
        <mxCell id="kOZsztwYuCCZvmPycqAU-10" value="ΤΟ ΑΡΧΕΙΘ&amp;nbsp;&lt;div&gt;ΕΙΝΑΙ ΣΩΣΤΑ&amp;nbsp;&lt;div&gt;ΔΟΜΗΜΕΝΟ; (5 ΣΤΟΙΧΕΙΑ ΑΝΑ ΣΕΙΡΑ)&lt;/div&gt;&lt;/div&gt;" style="rhombus;whiteSpace=wrap;html=1;rounded=0;shadow=1;labelBackgroundColor=none;strokeWidth=1;fontFamily=Verdana;fontSize=8;align=center;" parent="1" vertex="1">
          <mxGeometry x="480" y="330" width="120" height="80" as="geometry" />
        </mxCell>
        <mxCell id="kOZsztwYuCCZvmPycqAU-24" style="edgeStyle=orthogonalEdgeStyle;rounded=0;orthogonalLoop=1;jettySize=auto;html=1;entryX=1;entryY=0.5;entryDx=0;entryDy=0;" parent="1" source="kOZsztwYuCCZvmPycqAU-15" target="kOZsztwYuCCZvmPycqAU-106" edge="1">
          <mxGeometry relative="1" as="geometry" />
        </mxCell>
        <mxCell id="kOZsztwYuCCZvmPycqAU-15" value="ΕΜΦΑΝΙΣΗ ΕΙΔΟΠΟΙΗΣΗΣ ΟΤΙ ΤΟ ΑΡΧΕΙΟ ΔΕΝ ΕΙΝΑΙ ΣΩΣΤΑ ΔΟΜΗΜΕΝΟ ΚΑΙ ΠΡΕΠΕΙ ΝΑ ΞΑΝΑΔΗΜΙΟΥΡΓΗΘΕΙ" style="rounded=1;whiteSpace=wrap;html=1;shadow=1;labelBackgroundColor=none;strokeWidth=1;fontFamily=Verdana;fontSize=8;align=center;" parent="1" vertex="1">
          <mxGeometry x="340" y="340" width="110" height="60" as="geometry" />
        </mxCell>
        <mxCell id="kOZsztwYuCCZvmPycqAU-19" style="edgeStyle=orthogonalEdgeStyle;rounded=0;orthogonalLoop=1;jettySize=auto;html=1;entryX=0;entryY=0.5;entryDx=0;entryDy=0;" parent="1" source="kOZsztwYuCCZvmPycqAU-18" target="60e70716793133e9-7" edge="1">
          <mxGeometry relative="1" as="geometry" />
        </mxCell>
        <mxCell id="kOZsztwYuCCZvmPycqAU-18" value="ΕΜΦΑΝΙΣΗ ΕΙΔΟΠΟΙΗΣΗΣ ΟΤΙ ΤΟ ΑΡΧΕΙΟ ΒΡΕΘΗΚΕ" style="rounded=1;whiteSpace=wrap;html=1;shadow=1;labelBackgroundColor=none;strokeWidth=1;fontFamily=Verdana;fontSize=8;align=center;" parent="1" vertex="1">
          <mxGeometry x="340" y="220" width="110" height="60" as="geometry" />
        </mxCell>
        <mxCell id="kOZsztwYuCCZvmPycqAU-108" style="edgeStyle=orthogonalEdgeStyle;rounded=0;orthogonalLoop=1;jettySize=auto;html=1;entryX=0.5;entryY=0;entryDx=0;entryDy=0;" parent="1" source="kOZsztwYuCCZvmPycqAU-20" target="60e70716793133e9-5" edge="1">
          <mxGeometry relative="1" as="geometry" />
        </mxCell>
        <mxCell id="kOZsztwYuCCZvmPycqAU-20" value="ΕΜΦΑΝΙΣΗ ΚΟΥΜΠΙΟΥ &#39;ΕΠΙΛΟΓΕΣ ΑΡΧΕΙΟΥ&#39;" style="rounded=1;whiteSpace=wrap;html=1;shadow=1;labelBackgroundColor=none;strokeWidth=1;fontFamily=Verdana;fontSize=8;align=center;" parent="1" vertex="1">
          <mxGeometry x="195" y="120" width="110" height="60" as="geometry" />
        </mxCell>
        <mxCell id="kOZsztwYuCCZvmPycqAU-29" style="edgeStyle=orthogonalEdgeStyle;rounded=0;orthogonalLoop=1;jettySize=auto;html=1;entryX=0;entryY=0.5;entryDx=0;entryDy=0;" parent="1" source="kOZsztwYuCCZvmPycqAU-26" target="kOZsztwYuCCZvmPycqAU-28" edge="1">
          <mxGeometry relative="1" as="geometry" />
        </mxCell>
        <mxCell id="kOZsztwYuCCZvmPycqAU-26" value="Ο ΧΡΗΣΤΗΣ ΠΑΤΑΕΙ ΤΟ ΚΟΥΜΠΙ &#39;ΝΕΟΣ ΧΡΗΣΤΗΣ&#39;" style="whiteSpace=wrap;html=1;rounded=0;shadow=1;labelBackgroundColor=none;strokeWidth=1;fontFamily=Verdana;fontSize=8;align=center;" parent="1" vertex="1">
          <mxGeometry x="830" y="230" width="120" height="40" as="geometry" />
        </mxCell>
        <mxCell id="kOZsztwYuCCZvmPycqAU-64" style="edgeStyle=orthogonalEdgeStyle;rounded=0;orthogonalLoop=1;jettySize=auto;html=1;entryX=0;entryY=0.5;entryDx=0;entryDy=0;" parent="1" source="kOZsztwYuCCZvmPycqAU-28" target="kOZsztwYuCCZvmPycqAU-63" edge="1">
          <mxGeometry relative="1" as="geometry" />
        </mxCell>
        <mxCell id="kOZsztwYuCCZvmPycqAU-28" value="&lt;font style=&quot;font-size: 9px;&quot;&gt;ΠΑΡΑΘΥΡΟ 2&lt;/font&gt;" style="ellipse;whiteSpace=wrap;html=1;aspect=fixed;" parent="1" vertex="1">
          <mxGeometry x="1020" y="210" width="80" height="80" as="geometry" />
        </mxCell>
        <mxCell id="kOZsztwYuCCZvmPycqAU-34" style="edgeStyle=orthogonalEdgeStyle;rounded=0;orthogonalLoop=1;jettySize=auto;html=1;entryX=0.5;entryY=0;entryDx=0;entryDy=0;" parent="1" source="kOZsztwYuCCZvmPycqAU-31" target="kOZsztwYuCCZvmPycqAU-33" edge="1">
          <mxGeometry relative="1" as="geometry" />
        </mxCell>
        <mxCell id="kOZsztwYuCCZvmPycqAU-103" style="edgeStyle=orthogonalEdgeStyle;rounded=0;orthogonalLoop=1;jettySize=auto;html=1;entryX=0.5;entryY=1;entryDx=0;entryDy=0;" parent="1" source="kOZsztwYuCCZvmPycqAU-31" target="kOZsztwYuCCZvmPycqAU-26" edge="1">
          <mxGeometry relative="1" as="geometry">
            <Array as="points">
              <mxPoint x="760" y="490" />
              <mxPoint x="760" y="310" />
              <mxPoint x="890" y="310" />
            </Array>
          </mxGeometry>
        </mxCell>
        <mxCell id="kOZsztwYuCCZvmPycqAU-31" value="ΕΜΦΑΝΙΣΗ DROPDOWN ΜΕ ΛΙΣΤΑ ΤΩΝ ΧΡΗΣΤΩΝ ΚΑΙ ΚΟΥΜΠΙΟΥ &#39;ΝΕΟΣ ΧΡΗΣΤΗΣ&#39;" style="rounded=1;whiteSpace=wrap;html=1;shadow=1;labelBackgroundColor=none;strokeWidth=1;fontFamily=Verdana;fontSize=8;align=center;" parent="1" vertex="1">
          <mxGeometry x="485" y="460" width="110" height="60" as="geometry" />
        </mxCell>
        <mxCell id="kOZsztwYuCCZvmPycqAU-85" style="edgeStyle=orthogonalEdgeStyle;rounded=0;orthogonalLoop=1;jettySize=auto;html=1;entryX=0.5;entryY=0;entryDx=0;entryDy=0;" parent="1" source="kOZsztwYuCCZvmPycqAU-33" target="kOZsztwYuCCZvmPycqAU-84" edge="1">
          <mxGeometry relative="1" as="geometry" />
        </mxCell>
        <mxCell id="kOZsztwYuCCZvmPycqAU-33" value="Ο ΧΡΗΣΤΗΣ ΕΠΙΛΕΓΕΙ ΕΝΑΝ ΧΡΗΣΤΗ ΑΠΟ ΤΗΝ ΛΙΣΤΑ" style="whiteSpace=wrap;html=1;rounded=0;shadow=1;labelBackgroundColor=none;strokeWidth=1;fontFamily=Verdana;fontSize=8;align=center;" parent="1" vertex="1">
          <mxGeometry x="480" y="570" width="120" height="40" as="geometry" />
        </mxCell>
        <mxCell id="kOZsztwYuCCZvmPycqAU-39" style="edgeStyle=orthogonalEdgeStyle;rounded=0;orthogonalLoop=1;jettySize=auto;html=1;entryX=0.5;entryY=0;entryDx=0;entryDy=0;" parent="1" source="kOZsztwYuCCZvmPycqAU-36" target="kOZsztwYuCCZvmPycqAU-38" edge="1">
          <mxGeometry relative="1" as="geometry" />
        </mxCell>
        <mxCell id="kOZsztwYuCCZvmPycqAU-36" value="&lt;font style=&quot;font-size: 9px;&quot;&gt;ΠΑΡΑΘΥΡΟ 3&lt;/font&gt;" style="ellipse;whiteSpace=wrap;html=1;aspect=fixed;" parent="1" vertex="1">
          <mxGeometry x="500" y="770" width="80" height="80" as="geometry" />
        </mxCell>
        <mxCell id="kOZsztwYuCCZvmPycqAU-41" style="edgeStyle=orthogonalEdgeStyle;rounded=0;orthogonalLoop=1;jettySize=auto;html=1;entryX=0.5;entryY=0;entryDx=0;entryDy=0;" parent="1" source="kOZsztwYuCCZvmPycqAU-38" target="kOZsztwYuCCZvmPycqAU-40" edge="1">
          <mxGeometry relative="1" as="geometry" />
        </mxCell>
        <mxCell id="kOZsztwYuCCZvmPycqAU-38" value="ΕΜΦΑΝΙΣΗ ΤΩΝ ΔΡΑΣΤΗΡΙΩΤΗΤΩΝ" style="rounded=1;whiteSpace=wrap;html=1;shadow=1;labelBackgroundColor=none;strokeWidth=1;fontFamily=Verdana;fontSize=8;align=center;" parent="1" vertex="1">
          <mxGeometry x="485" y="890" width="110" height="60" as="geometry" />
        </mxCell>
        <mxCell id="kOZsztwYuCCZvmPycqAU-94" style="edgeStyle=orthogonalEdgeStyle;rounded=0;orthogonalLoop=1;jettySize=auto;html=1;entryX=0.5;entryY=0;entryDx=0;entryDy=0;" parent="1" source="kOZsztwYuCCZvmPycqAU-40" target="kOZsztwYuCCZvmPycqAU-93" edge="1">
          <mxGeometry relative="1" as="geometry" />
        </mxCell>
        <mxCell id="kOZsztwYuCCZvmPycqAU-40" value="ΕΜΦΑΝΙΣΗ ΤΩΝ ΕΠΙΛΟΓΩΝ ΤΑΞΙΝΟΜΗΣΗΣ ΚΑΙ ΓΡΑΦΗΜΑΤΩΝ" style="rounded=1;whiteSpace=wrap;html=1;shadow=1;labelBackgroundColor=none;strokeWidth=1;fontFamily=Verdana;fontSize=8;align=center;" parent="1" vertex="1">
          <mxGeometry x="485" y="990" width="110" height="60" as="geometry" />
        </mxCell>
        <mxCell id="kOZsztwYuCCZvmPycqAU-47" style="edgeStyle=orthogonalEdgeStyle;rounded=0;orthogonalLoop=1;jettySize=auto;html=1;" parent="1" source="kOZsztwYuCCZvmPycqAU-42" target="kOZsztwYuCCZvmPycqAU-46" edge="1">
          <mxGeometry relative="1" as="geometry" />
        </mxCell>
        <mxCell id="kOZsztwYuCCZvmPycqAU-42" value="ΕΜΦΑΝΙΣΗ 4 ΠΕΔΙΩΝ ΓΙΑ ΤΗΝ ΔΗΜΙΟΥΡΓΙΑ ΝΕΑΣ ΔΡΑΣΤΗΡΙΟΤΗΤΑΣ ΚΑΙ ΤΟ ΚΟΥΜΠΙ &#39;ΝΕΑ ΔΡΑΣΤΗΡΙΟΤΗΤΑ&#39;" style="rounded=1;whiteSpace=wrap;html=1;shadow=1;labelBackgroundColor=none;strokeWidth=1;fontFamily=Verdana;fontSize=8;align=center;" parent="1" vertex="1">
          <mxGeometry x="485" y="1180" width="110" height="60" as="geometry" />
        </mxCell>
        <mxCell id="kOZsztwYuCCZvmPycqAU-91" style="edgeStyle=orthogonalEdgeStyle;rounded=0;orthogonalLoop=1;jettySize=auto;html=1;entryX=1;entryY=0.5;entryDx=0;entryDy=0;" parent="1" source="kOZsztwYuCCZvmPycqAU-46" target="kOZsztwYuCCZvmPycqAU-50" edge="1">
          <mxGeometry relative="1" as="geometry" />
        </mxCell>
        <mxCell id="kOZsztwYuCCZvmPycqAU-46" value="Ο ΧΡΗΣΤΗΣ ΕΙΣΑΓΕΙ ΝΕΑ ΔΡΑΣΤΗΡΙΟΤΗΤΑ" style="whiteSpace=wrap;html=1;rounded=0;shadow=1;labelBackgroundColor=none;strokeWidth=1;fontFamily=Verdana;fontSize=8;align=center;" parent="1" vertex="1">
          <mxGeometry x="480" y="1310" width="120" height="40" as="geometry" />
        </mxCell>
        <mxCell id="kOZsztwYuCCZvmPycqAU-53" style="edgeStyle=orthogonalEdgeStyle;rounded=0;orthogonalLoop=1;jettySize=auto;html=1;" parent="1" source="kOZsztwYuCCZvmPycqAU-50" target="kOZsztwYuCCZvmPycqAU-52" edge="1">
          <mxGeometry relative="1" as="geometry" />
        </mxCell>
        <mxCell id="kOZsztwYuCCZvmPycqAU-54" value="&lt;font style=&quot;font-size: 9px;&quot;&gt;OXI&lt;/font&gt;" style="edgeLabel;html=1;align=center;verticalAlign=middle;resizable=0;points=[];" parent="kOZsztwYuCCZvmPycqAU-53" vertex="1" connectable="0">
          <mxGeometry x="-0.1333" y="1" relative="1" as="geometry">
            <mxPoint x="14" y="-16" as="offset" />
          </mxGeometry>
        </mxCell>
        <mxCell id="kOZsztwYuCCZvmPycqAU-57" style="edgeStyle=orthogonalEdgeStyle;rounded=0;orthogonalLoop=1;jettySize=auto;html=1;entryX=0.5;entryY=1;entryDx=0;entryDy=0;" parent="1" source="kOZsztwYuCCZvmPycqAU-50" target="kOZsztwYuCCZvmPycqAU-56" edge="1">
          <mxGeometry relative="1" as="geometry">
            <mxPoint x="265" y="1210" as="targetPoint" />
          </mxGeometry>
        </mxCell>
        <mxCell id="kOZsztwYuCCZvmPycqAU-58" value="&lt;font style=&quot;font-size: 9px;&quot;&gt;NAI&lt;/font&gt;" style="edgeLabel;html=1;align=center;verticalAlign=middle;resizable=0;points=[];" parent="kOZsztwYuCCZvmPycqAU-57" vertex="1" connectable="0">
          <mxGeometry x="0.2571" y="-1" relative="1" as="geometry">
            <mxPoint x="14" y="34" as="offset" />
          </mxGeometry>
        </mxCell>
        <mxCell id="kOZsztwYuCCZvmPycqAU-50" value="Ο ΧΡΗΣΤΗΣ ΕΧΕΙ ΥΠΕΡΒΕΙ ΤΙΣ ΕΒΔΟΜΑΔΙΑΙΕΣ ΩΡΕΣ;" style="rhombus;whiteSpace=wrap;html=1;rounded=0;shadow=1;labelBackgroundColor=none;strokeWidth=1;fontFamily=Verdana;fontSize=8;align=center;" parent="1" vertex="1">
          <mxGeometry x="190" y="1280" width="150" height="100" as="geometry" />
        </mxCell>
        <mxCell id="kOZsztwYuCCZvmPycqAU-61" style="edgeStyle=orthogonalEdgeStyle;rounded=0;orthogonalLoop=1;jettySize=auto;html=1;" parent="1" source="kOZsztwYuCCZvmPycqAU-52" target="kOZsztwYuCCZvmPycqAU-62" edge="1">
          <mxGeometry relative="1" as="geometry">
            <mxPoint x="265" y="1600" as="targetPoint" />
          </mxGeometry>
        </mxCell>
        <mxCell id="kOZsztwYuCCZvmPycqAU-52" value="ΥΠΑΡΧΟΥΝ ΚΑΙ ΟΙ 5 ΤΙΜΕΣ;" style="rhombus;whiteSpace=wrap;html=1;rounded=0;shadow=1;labelBackgroundColor=none;strokeWidth=1;fontFamily=Verdana;fontSize=8;align=center;" parent="1" vertex="1">
          <mxGeometry x="190" y="1440" width="150" height="100" as="geometry" />
        </mxCell>
        <mxCell id="kOZsztwYuCCZvmPycqAU-92" style="edgeStyle=orthogonalEdgeStyle;rounded=0;orthogonalLoop=1;jettySize=auto;html=1;entryX=0;entryY=0.5;entryDx=0;entryDy=0;" parent="1" source="kOZsztwYuCCZvmPycqAU-56" target="kOZsztwYuCCZvmPycqAU-36" edge="1">
          <mxGeometry relative="1" as="geometry">
            <Array as="points">
              <mxPoint x="265" y="810" />
            </Array>
          </mxGeometry>
        </mxCell>
        <mxCell id="kOZsztwYuCCZvmPycqAU-56" value="ΕΜΦΑΝΙΣΗ ΕΙΔΟΠΟΙΗΣΕΙΣ ΟΤΙ Ο ΧΡΗΣΤΗΣ ΕΧΕΙ ΥΠΕΡΒΕΙ ΤΙΣ ΕΒΔΟΜΑΔΙΑΙΕΣ ΩΡΕΣ (168)" style="rounded=1;whiteSpace=wrap;html=1;shadow=1;labelBackgroundColor=none;strokeWidth=1;fontFamily=Verdana;fontSize=8;align=center;" parent="1" vertex="1">
          <mxGeometry x="210" y="1070" width="110" height="60" as="geometry" />
        </mxCell>
        <mxCell id="kOZsztwYuCCZvmPycqAU-62" value="ΝΕΑ ΕΓΓΡΑΦΗ ΣΤΟ CSV ΑΡΧΕΙΟ" style="rounded=1;whiteSpace=wrap;html=1;shadow=1;labelBackgroundColor=none;strokeWidth=1;fontFamily=Verdana;fontSize=8;align=center;" parent="1" vertex="1">
          <mxGeometry x="210" y="1620" width="110" height="60" as="geometry" />
        </mxCell>
        <mxCell id="kOZsztwYuCCZvmPycqAU-69" style="edgeStyle=orthogonalEdgeStyle;rounded=0;orthogonalLoop=1;jettySize=auto;html=1;entryX=0;entryY=0.5;entryDx=0;entryDy=0;" parent="1" source="kOZsztwYuCCZvmPycqAU-63" target="kOZsztwYuCCZvmPycqAU-67" edge="1">
          <mxGeometry relative="1" as="geometry" />
        </mxCell>
        <mxCell id="kOZsztwYuCCZvmPycqAU-63" value="ΕΜΦΑΝΙΣΗ ΠΕΔΙΟΥ ΕΙΣΑΓΩΓΗΣ ΟΝΟΜΑΤΟΣ ΧΡΗΣΤΗ" style="rounded=1;whiteSpace=wrap;html=1;shadow=1;labelBackgroundColor=none;strokeWidth=1;fontFamily=Verdana;fontSize=8;align=center;" parent="1" vertex="1">
          <mxGeometry x="1170" y="220" width="110" height="60" as="geometry" />
        </mxCell>
        <mxCell id="kOZsztwYuCCZvmPycqAU-82" style="edgeStyle=orthogonalEdgeStyle;rounded=0;orthogonalLoop=1;jettySize=auto;html=1;entryX=1;entryY=0.5;entryDx=0;entryDy=0;" parent="1" source="kOZsztwYuCCZvmPycqAU-67" target="kOZsztwYuCCZvmPycqAU-81" edge="1">
          <mxGeometry relative="1" as="geometry">
            <Array as="points">
              <mxPoint x="1405" y="400" />
            </Array>
          </mxGeometry>
        </mxCell>
        <mxCell id="kOZsztwYuCCZvmPycqAU-90" value="&lt;font style=&quot;font-size: 9px;&quot;&gt;ΟΧΙ&lt;/font&gt;" style="edgeLabel;html=1;align=center;verticalAlign=middle;resizable=0;points=[];" parent="kOZsztwYuCCZvmPycqAU-82" vertex="1" connectable="0">
          <mxGeometry x="-0.1844" y="2" relative="1" as="geometry">
            <mxPoint x="62" y="-62" as="offset" />
          </mxGeometry>
        </mxCell>
        <mxCell id="kOZsztwYuCCZvmPycqAU-87" style="edgeStyle=orthogonalEdgeStyle;rounded=0;orthogonalLoop=1;jettySize=auto;html=1;entryX=1;entryY=0.5;entryDx=0;entryDy=0;" parent="1" source="kOZsztwYuCCZvmPycqAU-67" target="kOZsztwYuCCZvmPycqAU-72" edge="1">
          <mxGeometry relative="1" as="geometry" />
        </mxCell>
        <mxCell id="kOZsztwYuCCZvmPycqAU-88" value="&lt;font style=&quot;font-size: 9px;&quot;&gt;ΝΑΙ&lt;/font&gt;" style="edgeLabel;html=1;align=center;verticalAlign=middle;resizable=0;points=[];" parent="kOZsztwYuCCZvmPycqAU-87" vertex="1" connectable="0">
          <mxGeometry x="0.2522" y="-1" relative="1" as="geometry">
            <mxPoint x="14" y="22" as="offset" />
          </mxGeometry>
        </mxCell>
        <mxCell id="kOZsztwYuCCZvmPycqAU-67" value="Ο ΧΡΗΣΤΗΣ ΥΠΑΡΧΕΙ ΗΔΗ;" style="rhombus;whiteSpace=wrap;html=1;rounded=0;shadow=1;labelBackgroundColor=none;strokeWidth=1;fontFamily=Verdana;fontSize=8;align=center;" parent="1" vertex="1">
          <mxGeometry x="1340" y="210" width="130" height="80" as="geometry" />
        </mxCell>
        <mxCell id="kOZsztwYuCCZvmPycqAU-89" style="edgeStyle=orthogonalEdgeStyle;rounded=0;orthogonalLoop=1;jettySize=auto;html=1;entryX=0.5;entryY=0;entryDx=0;entryDy=0;" parent="1" source="kOZsztwYuCCZvmPycqAU-72" target="kOZsztwYuCCZvmPycqAU-63" edge="1">
          <mxGeometry relative="1" as="geometry">
            <Array as="points">
              <mxPoint x="1225" y="130" />
            </Array>
          </mxGeometry>
        </mxCell>
        <mxCell id="kOZsztwYuCCZvmPycqAU-72" value="ΕΜΦΑΝΙΣΗ ΕΙΔΟΠΟΙΣΗΣ ΟΤΙ Ο ΧΡΗΣΤΗΣ ΥΠΑΡΧΕΙ ΗΔΗ" style="rounded=1;whiteSpace=wrap;html=1;shadow=1;labelBackgroundColor=none;strokeWidth=1;fontFamily=Verdana;fontSize=8;align=center;" parent="1" vertex="1">
          <mxGeometry x="1260" y="100" width="110" height="60" as="geometry" />
        </mxCell>
        <mxCell id="kOZsztwYuCCZvmPycqAU-83" style="edgeStyle=orthogonalEdgeStyle;rounded=0;orthogonalLoop=1;jettySize=auto;html=1;entryX=1;entryY=0.5;entryDx=0;entryDy=0;" parent="1" source="kOZsztwYuCCZvmPycqAU-81" target="kOZsztwYuCCZvmPycqAU-36" edge="1">
          <mxGeometry relative="1" as="geometry">
            <Array as="points">
              <mxPoint x="800" y="400" />
              <mxPoint x="800" y="810" />
            </Array>
          </mxGeometry>
        </mxCell>
        <mxCell id="kOZsztwYuCCZvmPycqAU-81" value="ΑΠΟΘΗΚΕΥΣΗ ΤΟΥ ΟΝΟΜΑΤΟΣ ΧΡΗΣΤΗ ΣΕ GLOBAL ΜΕΤΑΒΛΗΤΗ" style="rounded=1;whiteSpace=wrap;html=1;shadow=1;labelBackgroundColor=none;strokeWidth=1;fontFamily=Verdana;fontSize=8;align=center;" parent="1" vertex="1">
          <mxGeometry x="1020" y="370" width="110" height="60" as="geometry" />
        </mxCell>
        <mxCell id="kOZsztwYuCCZvmPycqAU-86" style="edgeStyle=orthogonalEdgeStyle;rounded=0;orthogonalLoop=1;jettySize=auto;html=1;entryX=0.5;entryY=0;entryDx=0;entryDy=0;" parent="1" source="kOZsztwYuCCZvmPycqAU-84" target="kOZsztwYuCCZvmPycqAU-36" edge="1">
          <mxGeometry relative="1" as="geometry" />
        </mxCell>
        <mxCell id="kOZsztwYuCCZvmPycqAU-84" value="ΑΠΟΘΗΚΕΥΣΗ ΤΟΥ ΟΝΟΜΑΤΟΣ ΧΡΗΣΤΗ ΣΕ GLOBAL ΜΕΤΑΒΛΗΤΗ" style="rounded=1;whiteSpace=wrap;html=1;shadow=1;labelBackgroundColor=none;strokeWidth=1;fontFamily=Verdana;fontSize=8;align=center;" parent="1" vertex="1">
          <mxGeometry x="485" y="660" width="110" height="60" as="geometry" />
        </mxCell>
        <mxCell id="kOZsztwYuCCZvmPycqAU-95" style="edgeStyle=orthogonalEdgeStyle;rounded=0;orthogonalLoop=1;jettySize=auto;html=1;" parent="1" source="kOZsztwYuCCZvmPycqAU-93" target="kOZsztwYuCCZvmPycqAU-42" edge="1">
          <mxGeometry relative="1" as="geometry" />
        </mxCell>
        <mxCell id="kOZsztwYuCCZvmPycqAU-100" style="edgeStyle=orthogonalEdgeStyle;rounded=0;orthogonalLoop=1;jettySize=auto;html=1;entryX=0;entryY=0.5;entryDx=0;entryDy=0;" parent="1" source="kOZsztwYuCCZvmPycqAU-93" target="kOZsztwYuCCZvmPycqAU-99" edge="1">
          <mxGeometry relative="1" as="geometry" />
        </mxCell>
        <mxCell id="kOZsztwYuCCZvmPycqAU-93" value="ΕΜΦΑΝΙΣΗ ΤΟΥ ΚΟΥΜΠΙΟΥ &#39;ΓΡΑΦΗΜΑΤΑ&#39;" style="rounded=1;whiteSpace=wrap;html=1;shadow=1;labelBackgroundColor=none;strokeWidth=1;fontFamily=Verdana;fontSize=8;align=center;" parent="1" vertex="1">
          <mxGeometry x="485" y="1090" width="110" height="60" as="geometry" />
        </mxCell>
        <mxCell id="kOZsztwYuCCZvmPycqAU-102" style="edgeStyle=orthogonalEdgeStyle;rounded=0;orthogonalLoop=1;jettySize=auto;html=1;entryX=0.5;entryY=0;entryDx=0;entryDy=0;" parent="1" source="kOZsztwYuCCZvmPycqAU-96" target="kOZsztwYuCCZvmPycqAU-98" edge="1">
          <mxGeometry relative="1" as="geometry" />
        </mxCell>
        <mxCell id="kOZsztwYuCCZvmPycqAU-96" value="&lt;font style=&quot;font-size: 9px;&quot;&gt;ΠΑΡΑΘΥΡΟ 4&lt;/font&gt;" style="ellipse;whiteSpace=wrap;html=1;aspect=fixed;" parent="1" vertex="1">
          <mxGeometry x="850" y="1080" width="80" height="80" as="geometry" />
        </mxCell>
        <mxCell id="kOZsztwYuCCZvmPycqAU-98" value="ΕΜΦΑΝΙΣΗ ΤΩΝ ΓΡΑΦΗΜΑΤΩΝ" style="rounded=1;whiteSpace=wrap;html=1;shadow=1;labelBackgroundColor=none;strokeWidth=1;fontFamily=Verdana;fontSize=8;align=center;" parent="1" vertex="1">
          <mxGeometry x="835" y="1215" width="110" height="60" as="geometry" />
        </mxCell>
        <mxCell id="kOZsztwYuCCZvmPycqAU-101" style="edgeStyle=orthogonalEdgeStyle;rounded=0;orthogonalLoop=1;jettySize=auto;html=1;entryX=0;entryY=0.5;entryDx=0;entryDy=0;" parent="1" source="kOZsztwYuCCZvmPycqAU-99" target="kOZsztwYuCCZvmPycqAU-96" edge="1">
          <mxGeometry relative="1" as="geometry" />
        </mxCell>
        <mxCell id="kOZsztwYuCCZvmPycqAU-99" value="Ο ΧΡΗΣΤΗΣ ΠΑΤΑΕΙ ΤΟ ΚΟΥΜΠΙ ΓΡΑΦΗΜΑΤΑ" style="whiteSpace=wrap;html=1;rounded=0;shadow=1;labelBackgroundColor=none;strokeWidth=1;fontFamily=Verdana;fontSize=8;align=center;" parent="1" vertex="1">
          <mxGeometry x="650" y="1100" width="120" height="40" as="geometry" />
        </mxCell>
        <mxCell id="kOZsztwYuCCZvmPycqAU-120" style="edgeStyle=orthogonalEdgeStyle;rounded=0;orthogonalLoop=1;jettySize=auto;html=1;" parent="1" source="kOZsztwYuCCZvmPycqAU-106" target="kOZsztwYuCCZvmPycqAU-119" edge="1">
          <mxGeometry relative="1" as="geometry" />
        </mxCell>
        <mxCell id="kOZsztwYuCCZvmPycqAU-106" value="&lt;font style=&quot;font-size: 9px;&quot;&gt;Ο ΧΡΗΣΤΗΣ ΠΑΤΑΕΙ ΤΟ ΚΟΥΜΠΙ &#39;ΕΠΙΛΟΓΕΣ ΑΡΧΕΙΟΥ&#39;&lt;/font&gt;" style="rounded=0;whiteSpace=wrap;html=1;" parent="1" vertex="1">
          <mxGeometry x="190" y="340" width="120" height="60" as="geometry" />
        </mxCell>
        <mxCell id="kOZsztwYuCCZvmPycqAU-113" style="edgeStyle=orthogonalEdgeStyle;rounded=0;orthogonalLoop=1;jettySize=auto;html=1;entryX=1;entryY=0.5;entryDx=0;entryDy=0;" parent="1" source="kOZsztwYuCCZvmPycqAU-109" target="kOZsztwYuCCZvmPycqAU-127" edge="1">
          <mxGeometry relative="1" as="geometry" />
        </mxCell>
        <mxCell id="kOZsztwYuCCZvmPycqAU-117" value="&lt;font style=&quot;font-size: 9px;&quot;&gt;ΝΑΙ&lt;/font&gt;" style="edgeLabel;html=1;align=center;verticalAlign=middle;resizable=0;points=[];" parent="kOZsztwYuCCZvmPycqAU-113" vertex="1" connectable="0">
          <mxGeometry x="-0.0833" y="-3" relative="1" as="geometry">
            <mxPoint x="7" y="-7" as="offset" />
          </mxGeometry>
        </mxCell>
        <mxCell id="kOZsztwYuCCZvmPycqAU-116" style="edgeStyle=orthogonalEdgeStyle;rounded=0;orthogonalLoop=1;jettySize=auto;html=1;entryX=1;entryY=0.5;entryDx=0;entryDy=0;" parent="1" source="kOZsztwYuCCZvmPycqAU-109" target="kOZsztwYuCCZvmPycqAU-128" edge="1">
          <mxGeometry relative="1" as="geometry">
            <mxPoint x="-40" y="440" as="targetPoint" />
            <Array as="points">
              <mxPoint y="470" />
            </Array>
          </mxGeometry>
        </mxCell>
        <mxCell id="kOZsztwYuCCZvmPycqAU-118" value="&lt;font style=&quot;font-size: 9px;&quot;&gt;ΟΧΙ&lt;/font&gt;" style="edgeLabel;html=1;align=center;verticalAlign=middle;resizable=0;points=[];" parent="kOZsztwYuCCZvmPycqAU-116" vertex="1" connectable="0">
          <mxGeometry x="-0.213" y="-1" relative="1" as="geometry">
            <mxPoint x="11" y="-53" as="offset" />
          </mxGeometry>
        </mxCell>
        <mxCell id="kOZsztwYuCCZvmPycqAU-109" value="ΥΠΑΡΧΕΙ ΑΡΧΕΙΟ;" style="rhombus;whiteSpace=wrap;html=1;rounded=0;shadow=1;labelBackgroundColor=none;strokeWidth=1;fontFamily=Verdana;fontSize=8;align=center;" parent="1" vertex="1">
          <mxGeometry x="-50" y="340" width="100" height="60" as="geometry" />
        </mxCell>
        <mxCell id="kOZsztwYuCCZvmPycqAU-152" style="edgeStyle=orthogonalEdgeStyle;rounded=0;orthogonalLoop=1;jettySize=auto;html=1;entryX=1;entryY=0.5;entryDx=0;entryDy=0;" parent="1" source="kOZsztwYuCCZvmPycqAU-112" target="kOZsztwYuCCZvmPycqAU-151" edge="1">
          <mxGeometry relative="1" as="geometry" />
        </mxCell>
        <mxCell id="kOZsztwYuCCZvmPycqAU-112" value="ΕΜΦΑΝΙΣΗ ΕΙΔΟΠΟΙΗΣΗΣ ΟΤΙ ΤΟ ΑΡΧΕΙΟ ΥΠΑΡΧΕΙ ΚΑΙ ΑΝ ΔΗΜΙΟΥΡΓΗΘΕΙ ΝΕΟ ΘΑ ΔΙΑΓΡΑΦΤΕΙ ΤΟ ΠΑΛΙΟ" style="rounded=1;whiteSpace=wrap;html=1;shadow=1;labelBackgroundColor=none;strokeWidth=1;fontFamily=Verdana;fontSize=8;align=center;" parent="1" vertex="1">
          <mxGeometry x="-360" y="340" width="110" height="60" as="geometry" />
        </mxCell>
        <mxCell id="kOZsztwYuCCZvmPycqAU-123" style="edgeStyle=orthogonalEdgeStyle;rounded=0;orthogonalLoop=1;jettySize=auto;html=1;entryX=1;entryY=0.5;entryDx=0;entryDy=0;" parent="1" source="kOZsztwYuCCZvmPycqAU-114" target="kOZsztwYuCCZvmPycqAU-122" edge="1">
          <mxGeometry relative="1" as="geometry" />
        </mxCell>
        <mxCell id="kOZsztwYuCCZvmPycqAU-144" style="edgeStyle=orthogonalEdgeStyle;rounded=0;orthogonalLoop=1;jettySize=auto;html=1;entryX=1;entryY=0.5;entryDx=0;entryDy=0;" parent="1" source="kOZsztwYuCCZvmPycqAU-114" target="kOZsztwYuCCZvmPycqAU-143" edge="1">
          <mxGeometry relative="1" as="geometry" />
        </mxCell>
        <mxCell id="kOZsztwYuCCZvmPycqAU-159" style="edgeStyle=orthogonalEdgeStyle;rounded=0;orthogonalLoop=1;jettySize=auto;html=1;exitX=0;exitY=0.5;exitDx=0;exitDy=0;entryX=1;entryY=0.5;entryDx=0;entryDy=0;" parent="1" source="kOZsztwYuCCZvmPycqAU-114" target="kOZsztwYuCCZvmPycqAU-158" edge="1">
          <mxGeometry relative="1" as="geometry" />
        </mxCell>
        <mxCell id="kOZsztwYuCCZvmPycqAU-114" value="ΕΜΦΑΝΙΣΗ ΤΩΝ ΚΟΥΜΠΙΩΝ &#39;ΝΕΟ ΑΡΧΕΙΟ&#39; ΚΑΙ ΛΕΙΤΟΥΡΓΙΑΣ DRAG &amp;amp; DROP" style="rounded=1;whiteSpace=wrap;html=1;shadow=1;labelBackgroundColor=none;strokeWidth=1;fontFamily=Verdana;fontSize=8;align=center;" parent="1" vertex="1">
          <mxGeometry x="-660" y="340" width="110" height="60" as="geometry" />
        </mxCell>
        <mxCell id="kOZsztwYuCCZvmPycqAU-121" style="edgeStyle=orthogonalEdgeStyle;rounded=0;orthogonalLoop=1;jettySize=auto;html=1;exitX=0;exitY=0.5;exitDx=0;exitDy=0;entryX=1;entryY=0.5;entryDx=0;entryDy=0;" parent="1" source="kOZsztwYuCCZvmPycqAU-119" target="kOZsztwYuCCZvmPycqAU-109" edge="1">
          <mxGeometry relative="1" as="geometry" />
        </mxCell>
        <mxCell id="kOZsztwYuCCZvmPycqAU-119" value="&lt;font style=&quot;font-size: 9px;&quot;&gt;ΠΑΡΑΘΥΡΟ 5&lt;/font&gt;" style="ellipse;whiteSpace=wrap;html=1;aspect=fixed;" parent="1" vertex="1">
          <mxGeometry x="70" y="330" width="80" height="80" as="geometry" />
        </mxCell>
        <mxCell id="kOZsztwYuCCZvmPycqAU-136" style="edgeStyle=orthogonalEdgeStyle;rounded=0;orthogonalLoop=1;jettySize=auto;html=1;entryX=1;entryY=0.5;entryDx=0;entryDy=0;" parent="1" source="kOZsztwYuCCZvmPycqAU-122" target="kOZsztwYuCCZvmPycqAU-131" edge="1">
          <mxGeometry relative="1" as="geometry" />
        </mxCell>
        <mxCell id="kOZsztwYuCCZvmPycqAU-122" value="&lt;font style=&quot;font-size: 9px;&quot;&gt;Ο ΧΡΗΣΤΗΣ ΠΑΤΑΕΙ ΤΟ ΚΟΥΜΠΙ &#39;ΝΕΟ ΑΡΧΕΙΟ&#39; &#39;Η ΚΑΝΕΙ DRAG AND DROP ΕΝΑ ΑΡΧΕΙΟ&lt;/font&gt;&lt;span style=&quot;color: rgba(0, 0, 0, 0); font-family: monospace; font-size: 0px; text-align: start; text-wrap: nowrap;&quot;&gt;%3CmxGraphModel%3E%3Croot%3E%3CmxCell%20id%3D%220%22%2F%3E%3CmxCell%20id%3D%221%22%20parent%3D%220%22%2F%3E%3CmxCell%20id%3D%222%22%20value%3D%22%CE%A4%CE%9F%20%CE%91%CE%A1%CE%A7%CE%95%CE%99%CE%98%26amp%3Bnbsp%3B%26lt%3Bdiv%26gt%3B%CE%95%CE%99%CE%9D%CE%91%CE%99%20%CE%A3%CE%A9%CE%A3%CE%A4%CE%91%26amp%3Bnbsp%3B%26lt%3Bdiv%26gt%3B%CE%94%CE%9F%CE%9C%CE%97%CE%9C%CE%95%CE%9D%CE%9F%3B%20(5%20%CE%A3%CE%A4%CE%9F%CE%99%CE%A7%CE%95%CE%99%CE%91%20%CE%91%CE%9D%CE%91%20%CE%A3%CE%95%CE%99%CE%A1%CE%91)%26lt%3B%2Fdiv%26gt%3B%26lt%3B%2Fdiv%26gt%3B%22%20style%3D%22rhombus%3BwhiteSpace%3Dwrap%3Bhtml%3D1%3Brounded%3D0%3Bshadow%3D1%3BlabelBackgroundColor%3Dnone%3BstrokeWidth%3D1%3BfontFamily%3DVerdana%3BfontSize%3D8%3Balign%3Dcenter%3B%22%20vertex%3D%221%22%20parent%3D%221%22%3E%3CmxGeometry%20x%3D%22480%22%20y%3D%22330%22%20width%3D%22120%22%20height%3D%2280%22%20as%3D%22geometry%22%2F%3E%3C%2FmxCell%3E%3C%2Froot%3E%3C%2FmxGraphModel%3E&lt;/span&gt;" style="rounded=0;whiteSpace=wrap;html=1;" parent="1" vertex="1">
          <mxGeometry x="-950" y="440" width="120" height="60" as="geometry" />
        </mxCell>
        <mxCell id="kOZsztwYuCCZvmPycqAU-138" style="edgeStyle=orthogonalEdgeStyle;rounded=0;orthogonalLoop=1;jettySize=auto;html=1;entryX=0.5;entryY=1;entryDx=0;entryDy=0;" parent="1" source="kOZsztwYuCCZvmPycqAU-124" target="kOZsztwYuCCZvmPycqAU-137" edge="1">
          <mxGeometry relative="1" as="geometry" />
        </mxCell>
        <mxCell id="kOZsztwYuCCZvmPycqAU-124" value="ΔΙΑΓΡΑΦΗ ΑΡΧΕΙΟΥ ACTIVITIES.CSV" style="rounded=1;whiteSpace=wrap;html=1;shadow=1;labelBackgroundColor=none;strokeWidth=1;fontFamily=Verdana;fontSize=8;align=center;" parent="1" vertex="1">
          <mxGeometry x="-1240" y="440" width="110" height="60" as="geometry" />
        </mxCell>
        <mxCell id="kOZsztwYuCCZvmPycqAU-129" style="edgeStyle=orthogonalEdgeStyle;rounded=0;orthogonalLoop=1;jettySize=auto;html=1;entryX=1;entryY=0.5;entryDx=0;entryDy=0;" parent="1" source="kOZsztwYuCCZvmPycqAU-127" target="kOZsztwYuCCZvmPycqAU-112" edge="1">
          <mxGeometry relative="1" as="geometry" />
        </mxCell>
        <mxCell id="kOZsztwYuCCZvmPycqAU-127" value="file_exists=1" style="rounded=1;whiteSpace=wrap;html=1;shadow=1;labelBackgroundColor=none;strokeWidth=1;fontFamily=Verdana;fontSize=8;align=center;" parent="1" vertex="1">
          <mxGeometry x="-200" y="340" width="110" height="60" as="geometry" />
        </mxCell>
        <mxCell id="kOZsztwYuCCZvmPycqAU-154" style="edgeStyle=orthogonalEdgeStyle;rounded=0;orthogonalLoop=1;jettySize=auto;html=1;entryX=0.5;entryY=1;entryDx=0;entryDy=0;" parent="1" source="kOZsztwYuCCZvmPycqAU-128" target="kOZsztwYuCCZvmPycqAU-114" edge="1">
          <mxGeometry relative="1" as="geometry" />
        </mxCell>
        <mxCell id="kOZsztwYuCCZvmPycqAU-128" value="file_exists=0" style="rounded=1;whiteSpace=wrap;html=1;shadow=1;labelBackgroundColor=none;strokeWidth=1;fontFamily=Verdana;fontSize=8;align=center;" parent="1" vertex="1">
          <mxGeometry x="-200" y="440" width="110" height="60" as="geometry" />
        </mxCell>
        <mxCell id="kOZsztwYuCCZvmPycqAU-132" style="edgeStyle=orthogonalEdgeStyle;rounded=0;orthogonalLoop=1;jettySize=auto;html=1;entryX=1;entryY=0.5;entryDx=0;entryDy=0;" parent="1" source="kOZsztwYuCCZvmPycqAU-131" target="kOZsztwYuCCZvmPycqAU-124" edge="1">
          <mxGeometry relative="1" as="geometry" />
        </mxCell>
        <mxCell id="kOZsztwYuCCZvmPycqAU-133" value="&lt;font style=&quot;font-size: 9px;&quot;&gt;ΝΑΙ&lt;/font&gt;" style="edgeLabel;html=1;align=center;verticalAlign=middle;resizable=0;points=[];" parent="kOZsztwYuCCZvmPycqAU-132" vertex="1" connectable="0">
          <mxGeometry x="0.25" relative="1" as="geometry">
            <mxPoint x="15" y="-10" as="offset" />
          </mxGeometry>
        </mxCell>
        <mxCell id="kOZsztwYuCCZvmPycqAU-139" style="edgeStyle=orthogonalEdgeStyle;rounded=0;orthogonalLoop=1;jettySize=auto;html=1;entryX=1;entryY=0.5;entryDx=0;entryDy=0;" parent="1" source="kOZsztwYuCCZvmPycqAU-131" target="kOZsztwYuCCZvmPycqAU-137" edge="1">
          <mxGeometry relative="1" as="geometry">
            <Array as="points">
              <mxPoint x="-1040" y="360" />
            </Array>
          </mxGeometry>
        </mxCell>
        <mxCell id="kOZsztwYuCCZvmPycqAU-140" value="&lt;font style=&quot;font-size: 9px;&quot;&gt;ΟΧΙ&lt;/font&gt;" style="edgeLabel;html=1;align=center;verticalAlign=middle;resizable=0;points=[];" parent="kOZsztwYuCCZvmPycqAU-139" vertex="1" connectable="0">
          <mxGeometry x="0.4118" y="-1" relative="1" as="geometry">
            <mxPoint x="50" y="71" as="offset" />
          </mxGeometry>
        </mxCell>
        <mxCell id="kOZsztwYuCCZvmPycqAU-131" value="file_exists==1" style="rhombus;whiteSpace=wrap;html=1;rounded=0;shadow=1;labelBackgroundColor=none;strokeWidth=1;fontFamily=Verdana;fontSize=8;align=center;" parent="1" vertex="1">
          <mxGeometry x="-1090" y="440" width="100" height="60" as="geometry" />
        </mxCell>
        <mxCell id="kOZsztwYuCCZvmPycqAU-194" style="edgeStyle=orthogonalEdgeStyle;rounded=0;orthogonalLoop=1;jettySize=auto;html=1;entryX=0;entryY=0.5;entryDx=0;entryDy=0;" parent="1" source="kOZsztwYuCCZvmPycqAU-137" target="kOZsztwYuCCZvmPycqAU-7" edge="1">
          <mxGeometry relative="1" as="geometry">
            <Array as="points">
              <mxPoint x="-1185" y="50" />
            </Array>
          </mxGeometry>
        </mxCell>
        <mxCell id="kOZsztwYuCCZvmPycqAU-137" value="ΔΗΜΙΟΥΡΓΙΑ TOY ΑΡΧΕΙΟΥ ΣΤΟ ΦΑΚΕΛΟ ΤΟΥ PROJECT ΜΕ ΟΝΟΜΑ ACTIVITIES.CSV(&lt;font color=&quot;#ff0000&quot;&gt;script_dir = os.path.dirname(os.path.abspath(__file__))&lt;/font&gt;)" style="rounded=1;whiteSpace=wrap;html=1;shadow=1;labelBackgroundColor=none;strokeWidth=1;fontFamily=Verdana;fontSize=8;align=center;" parent="1" vertex="1">
          <mxGeometry x="-1286" y="330" width="202" height="60" as="geometry" />
        </mxCell>
        <mxCell id="kOZsztwYuCCZvmPycqAU-197" style="edgeStyle=orthogonalEdgeStyle;rounded=0;orthogonalLoop=1;jettySize=auto;html=1;entryX=0.5;entryY=1;entryDx=0;entryDy=0;" parent="1" source="kOZsztwYuCCZvmPycqAU-143" target="kOZsztwYuCCZvmPycqAU-196" edge="1">
          <mxGeometry relative="1" as="geometry" />
        </mxCell>
        <mxCell id="kOZsztwYuCCZvmPycqAU-143" value="&lt;font style=&quot;font-size: 9px;&quot;&gt;Ο ΧΡΗΣΤΗΣ ΠΑΤΑΕΙ ΤΟ ΚΟΥΜΠΙ &#39;ΕΞΑΓΩΓΗ ΑΡΧΕΙΟΥ&#39;&lt;/font&gt;" style="rounded=0;whiteSpace=wrap;html=1;" parent="1" vertex="1">
          <mxGeometry x="-950" y="340" width="120" height="60" as="geometry" />
        </mxCell>
        <mxCell id="kOZsztwYuCCZvmPycqAU-153" style="edgeStyle=orthogonalEdgeStyle;rounded=0;orthogonalLoop=1;jettySize=auto;html=1;entryX=1;entryY=0.5;entryDx=0;entryDy=0;" parent="1" source="kOZsztwYuCCZvmPycqAU-151" target="kOZsztwYuCCZvmPycqAU-114" edge="1">
          <mxGeometry relative="1" as="geometry" />
        </mxCell>
        <mxCell id="kOZsztwYuCCZvmPycqAU-151" value="ΕΜΦΑΝΙΣΗ ΤΟΥ ΚΟΥΜΠΙΟΥ ΈΞΑΓΩΓΗ ΑΡΧΕΙΟΥ&#39;" style="rounded=1;whiteSpace=wrap;html=1;shadow=1;labelBackgroundColor=none;strokeWidth=1;fontFamily=Verdana;fontSize=8;align=center;" parent="1" vertex="1">
          <mxGeometry x="-510" y="340" width="110" height="60" as="geometry" />
        </mxCell>
        <mxCell id="kOZsztwYuCCZvmPycqAU-195" style="edgeStyle=orthogonalEdgeStyle;rounded=0;orthogonalLoop=1;jettySize=auto;html=1;entryX=0;entryY=0.5;entryDx=0;entryDy=0;" parent="1" source="kOZsztwYuCCZvmPycqAU-155" target="kOZsztwYuCCZvmPycqAU-7" edge="1">
          <mxGeometry relative="1" as="geometry">
            <Array as="points">
              <mxPoint x="-890" y="50" />
            </Array>
          </mxGeometry>
        </mxCell>
        <mxCell id="kOZsztwYuCCZvmPycqAU-155" value="ΑΝΤΙΓΡΑΦΗ ΤΟΥ ΑΡΧΕΙΟΥ ΣΤΟ ΦΑΚΕΛΟ DOWNLOAD ΤΟΥ ΧΡΗΣΤΗ (&lt;font color=&quot;#ff0000&quot;&gt;downloads_path = f&quot;C:/Users/{getpass.getuser()}/Downloads&quot;&lt;/font&gt;)" style="rounded=1;whiteSpace=wrap;html=1;shadow=1;labelBackgroundColor=none;strokeWidth=1;fontFamily=Verdana;fontSize=8;align=center;" parent="1" vertex="1">
          <mxGeometry x="-987.5" y="90" width="195" height="70" as="geometry" />
        </mxCell>
        <mxCell id="kOZsztwYuCCZvmPycqAU-184" style="edgeStyle=orthogonalEdgeStyle;rounded=0;orthogonalLoop=1;jettySize=auto;html=1;entryX=1;entryY=0.5;entryDx=0;entryDy=0;" parent="1" source="kOZsztwYuCCZvmPycqAU-157" target="kOZsztwYuCCZvmPycqAU-183" edge="1">
          <mxGeometry relative="1" as="geometry" />
        </mxCell>
        <mxCell id="kOZsztwYuCCZvmPycqAU-186" value="NAI" style="edgeLabel;html=1;align=center;verticalAlign=middle;resizable=0;points=[];fontSize=9;" parent="kOZsztwYuCCZvmPycqAU-184" vertex="1" connectable="0">
          <mxGeometry x="0.0063" y="1" relative="1" as="geometry">
            <mxPoint x="18" y="-13" as="offset" />
          </mxGeometry>
        </mxCell>
        <mxCell id="kOZsztwYuCCZvmPycqAU-157" value="ΤΟ ΑΡΧΕΙO&amp;nbsp;&lt;span style=&quot;background-color: initial;&quot;&gt;ΕΙΝΑΙ ΣΩΣΤΑ&amp;nbsp;&lt;/span&gt;&lt;div&gt;&lt;div&gt;ΔΟΜΗΜΕΝΟ;&amp;nbsp;&lt;span style=&quot;background-color: initial;&quot;&gt;(5 ΣΤΟΙΧΕΙΑ&amp;nbsp;&lt;/span&gt;&lt;/div&gt;&lt;div&gt;&lt;span style=&quot;background-color: initial;&quot;&gt;ΑΝΑ ΣΕΙΡΑ)&lt;/span&gt;&lt;/div&gt;&lt;/div&gt;" style="rhombus;whiteSpace=wrap;html=1;rounded=0;shadow=1;labelBackgroundColor=none;strokeWidth=1;fontFamily=Verdana;fontSize=8;align=center;" parent="1" vertex="1">
          <mxGeometry x="-1440" y="525" width="130" height="90" as="geometry" />
        </mxCell>
        <mxCell id="kOZsztwYuCCZvmPycqAU-163" style="edgeStyle=orthogonalEdgeStyle;rounded=0;orthogonalLoop=1;jettySize=auto;html=1;entryX=1;entryY=0.5;entryDx=0;entryDy=0;" parent="1" source="kOZsztwYuCCZvmPycqAU-158" target="kOZsztwYuCCZvmPycqAU-162" edge="1">
          <mxGeometry relative="1" as="geometry" />
        </mxCell>
        <mxCell id="kOZsztwYuCCZvmPycqAU-158" value="&lt;font style=&quot;font-size: 9px;&quot;&gt;Ο ΧΡΗΣΤΗΣ ΚΑΝΕΙ DRAG AND DROP ΕΝΑ ΑΡΧΕΙΟ&lt;/font&gt;&lt;span style=&quot;color: rgba(0, 0, 0, 0); font-family: monospace; font-size: 0px; text-align: start; text-wrap: nowrap;&quot;&gt;%3CmxGraphModel%3E%3Croot%3E%3CmxCell%20id%3D%220%22%2F%3E%3CmxCell%20id%3D%221%22%20parent%3D%220%22%2F%3E%3CmxCell%20id%3D%222%22%20value%3D%22%CE%A4%CE%9F%20%CE%91%CE%A1%CE%A7%CE%95%CE%99%CE%98%26amp%3Bnbsp%3B%26lt%3Bdiv%26gt%3B%CE%95%CE%99%CE%9D%CE%91%CE%99%20%CE%A3%CE%A9%CE%A3%CE%A4%CE%91%26amp%3Bnbsp%3B%26lt%3Bdiv%26gt%3B%CE%94%CE%9F%CE%9C%CE%97%CE%9C%CE%95%CE%9D%CE%9F%3B%20(5%20%CE%A3%CE%A4%CE%9F%CE%99%CE%A7%CE%95%CE%99%CE%91%20%CE%91%CE%9D%CE%91%20%CE%A3%CE%95%CE%99%CE%A1%CE%91)%26lt%3B%2Fdiv%26gt%3B%26lt%3B%2Fdiv%26gt%3B%22%20style%3D%22rhombus%3BwhiteSpace%3Dwrap%3Bhtml%3D1%3Brounded%3D0%3Bshadow%3D1%3BlabelBackgroundColor%3Dnone%3BstrokeWidth%3D1%3BfontFamily%3DVerdana%3BfontSize%3D8%3Balign%3Dcenter%3B%22%20vertex%3D%221%22%20parent%3D%221%22%3E%3CmxGeometry%20x%3D%22480%22%20y%3D%22330%22%20width%3D%22120%22%20height%3D%2280%22%20as%3D%22geometry%22%2F%3E%3C%2FmxCell%3E%3C%2Froot%3E%3C%2FmxGraphModel%3E&lt;/span&gt;" style="rounded=0;whiteSpace=wrap;html=1;" parent="1" vertex="1">
          <mxGeometry x="-950" y="540" width="120" height="60" as="geometry" />
        </mxCell>
        <mxCell id="kOZsztwYuCCZvmPycqAU-176" style="edgeStyle=orthogonalEdgeStyle;rounded=0;orthogonalLoop=1;jettySize=auto;html=1;entryX=0;entryY=0.5;entryDx=0;entryDy=0;" parent="1" source="kOZsztwYuCCZvmPycqAU-160" target="kOZsztwYuCCZvmPycqAU-7" edge="1">
          <mxGeometry relative="1" as="geometry">
            <Array as="points">
              <mxPoint x="-1765" y="50" />
            </Array>
          </mxGeometry>
        </mxCell>
        <mxCell id="kOZsztwYuCCZvmPycqAU-160" value="ΑΝΤΙΓΡΑΦΗ ΤΟΥ ΑΡΧΕΙΟΥ ΣΤΟ ΦΑΚΕΛΟ ΤΟΥ PROJECT ΜΕ ΟΝΟΜΑ ACTIVITIES.CSV(&lt;font color=&quot;#ff0000&quot;&gt;script_dir = os.path.dirname(os.path.abspath(__file__))&lt;/font&gt;)" style="rounded=1;whiteSpace=wrap;html=1;shadow=1;labelBackgroundColor=none;strokeWidth=1;fontFamily=Verdana;fontSize=8;align=center;" parent="1" vertex="1">
          <mxGeometry x="-1863" y="430" width="195" height="70" as="geometry" />
        </mxCell>
        <mxCell id="kOZsztwYuCCZvmPycqAU-165" style="edgeStyle=orthogonalEdgeStyle;rounded=0;orthogonalLoop=1;jettySize=auto;html=1;entryX=1;entryY=0.5;entryDx=0;entryDy=0;" parent="1" source="kOZsztwYuCCZvmPycqAU-162" target="kOZsztwYuCCZvmPycqAU-164" edge="1">
          <mxGeometry relative="1" as="geometry" />
        </mxCell>
        <mxCell id="kOZsztwYuCCZvmPycqAU-162" value="ΕΛΕΓΧΟΣ ΑΝ ΤΟ ΑΡΧΕΙΟ ΕΙΝΑΙ ΤΥΠΟΥ .CSV" style="rounded=1;whiteSpace=wrap;html=1;shadow=1;labelBackgroundColor=none;strokeWidth=1;fontFamily=Verdana;fontSize=8;align=center;" parent="1" vertex="1">
          <mxGeometry x="-1100" y="540" width="110" height="60" as="geometry" />
        </mxCell>
        <mxCell id="kOZsztwYuCCZvmPycqAU-170" style="edgeStyle=orthogonalEdgeStyle;rounded=0;orthogonalLoop=1;jettySize=auto;html=1;entryX=1;entryY=0.5;entryDx=0;entryDy=0;" parent="1" source="kOZsztwYuCCZvmPycqAU-164" target="kOZsztwYuCCZvmPycqAU-157" edge="1">
          <mxGeometry relative="1" as="geometry" />
        </mxCell>
        <mxCell id="kOZsztwYuCCZvmPycqAU-173" value="NAI" style="edgeLabel;html=1;align=center;verticalAlign=middle;resizable=0;points=[];fontSize=9;" parent="kOZsztwYuCCZvmPycqAU-170" vertex="1" connectable="0">
          <mxGeometry x="-0.3381" y="-1" relative="1" as="geometry">
            <mxPoint x="10" y="-9" as="offset" />
          </mxGeometry>
        </mxCell>
        <mxCell id="kOZsztwYuCCZvmPycqAU-164" value="ΤΟ ΑΡΧΕΙΟ ΕΙΝΑΙ ΤΥΠΟΥ .CSV;" style="rhombus;whiteSpace=wrap;html=1;rounded=0;shadow=1;labelBackgroundColor=none;strokeWidth=1;fontFamily=Verdana;fontSize=8;align=center;" parent="1" vertex="1">
          <mxGeometry x="-1250" y="540" width="100" height="60" as="geometry" />
        </mxCell>
        <mxCell id="kOZsztwYuCCZvmPycqAU-169" style="edgeStyle=orthogonalEdgeStyle;rounded=0;orthogonalLoop=1;jettySize=auto;html=1;entryX=0.5;entryY=1;entryDx=0;entryDy=0;" parent="1" source="kOZsztwYuCCZvmPycqAU-167" target="kOZsztwYuCCZvmPycqAU-119" edge="1">
          <mxGeometry relative="1" as="geometry" />
        </mxCell>
        <mxCell id="kOZsztwYuCCZvmPycqAU-167" value="ΕΙΔΟΠΟΙΗΣΗ ΟΤΙ ΤΟ ΑΡΧΕΙΟ ΔΕΝ ΕΙΝΑΙ ΤΥΠΟΥ .CSV" style="rounded=1;whiteSpace=wrap;html=1;shadow=1;labelBackgroundColor=none;strokeWidth=1;fontFamily=Verdana;fontSize=8;align=center;" parent="1" vertex="1">
          <mxGeometry x="-1095" y="640" width="110" height="60" as="geometry" />
        </mxCell>
        <mxCell id="kOZsztwYuCCZvmPycqAU-168" style="edgeStyle=orthogonalEdgeStyle;rounded=0;orthogonalLoop=1;jettySize=auto;html=1;entryX=0.009;entryY=0.65;entryDx=0;entryDy=0;entryPerimeter=0;" parent="1" source="kOZsztwYuCCZvmPycqAU-164" target="kOZsztwYuCCZvmPycqAU-167" edge="1">
          <mxGeometry relative="1" as="geometry">
            <Array as="points">
              <mxPoint x="-1200" y="679" />
            </Array>
          </mxGeometry>
        </mxCell>
        <mxCell id="kOZsztwYuCCZvmPycqAU-172" value="&lt;font style=&quot;font-size: 9px;&quot;&gt;OXI&lt;/font&gt;" style="edgeLabel;html=1;align=center;verticalAlign=middle;resizable=0;points=[];" parent="kOZsztwYuCCZvmPycqAU-168" vertex="1" connectable="0">
          <mxGeometry x="-0.5892" relative="1" as="geometry">
            <mxPoint x="15" y="-28" as="offset" />
          </mxGeometry>
        </mxCell>
        <mxCell id="kOZsztwYuCCZvmPycqAU-181" style="edgeStyle=orthogonalEdgeStyle;rounded=0;orthogonalLoop=1;jettySize=auto;html=1;" parent="1" source="kOZsztwYuCCZvmPycqAU-179" target="kOZsztwYuCCZvmPycqAU-119" edge="1">
          <mxGeometry relative="1" as="geometry" />
        </mxCell>
        <mxCell id="kOZsztwYuCCZvmPycqAU-179" value="ΕΙΔΟΠΟΙΗΣΗ ΟΤΙ ΤΟ ΑΡΧΕΙΟ ΔΕΝ ΕΙΝΑΙ ΣΩΣΤΑ ΔΟΜΗΜΕΝΟ Ή ΟΤΙ ΕΙΝΑΙ ΑΔΕΙΟ" style="rounded=1;whiteSpace=wrap;html=1;shadow=1;labelBackgroundColor=none;strokeWidth=1;fontFamily=Verdana;fontSize=8;align=center;" parent="1" vertex="1">
          <mxGeometry x="-1095" y="738" width="110" height="60" as="geometry" />
        </mxCell>
        <mxCell id="kOZsztwYuCCZvmPycqAU-180" style="edgeStyle=orthogonalEdgeStyle;rounded=0;orthogonalLoop=1;jettySize=auto;html=1;entryX=0.008;entryY=0.594;entryDx=0;entryDy=0;entryPerimeter=0;" parent="1" source="kOZsztwYuCCZvmPycqAU-157" target="kOZsztwYuCCZvmPycqAU-179" edge="1">
          <mxGeometry relative="1" as="geometry">
            <Array as="points">
              <mxPoint x="-1375" y="774" />
            </Array>
          </mxGeometry>
        </mxCell>
        <mxCell id="kOZsztwYuCCZvmPycqAU-182" value="&lt;font style=&quot;font-size: 9px;&quot;&gt;ΟΧΙ&lt;/font&gt;" style="edgeLabel;html=1;align=center;verticalAlign=middle;resizable=0;points=[];" parent="kOZsztwYuCCZvmPycqAU-180" vertex="1" connectable="0">
          <mxGeometry x="-0.661" y="3" relative="1" as="geometry">
            <mxPoint x="13" y="-59" as="offset" />
          </mxGeometry>
        </mxCell>
        <mxCell id="kOZsztwYuCCZvmPycqAU-190" style="edgeStyle=orthogonalEdgeStyle;rounded=0;orthogonalLoop=1;jettySize=auto;html=1;" parent="1" source="kOZsztwYuCCZvmPycqAU-183" target="kOZsztwYuCCZvmPycqAU-188" edge="1">
          <mxGeometry relative="1" as="geometry" />
        </mxCell>
        <mxCell id="kOZsztwYuCCZvmPycqAU-193" value="NAI" style="edgeLabel;html=1;align=center;verticalAlign=middle;resizable=0;points=[];fontSize=9;" parent="kOZsztwYuCCZvmPycqAU-190" vertex="1" connectable="0">
          <mxGeometry x="0.0695" y="-3" relative="1" as="geometry">
            <mxPoint x="54" y="-9" as="offset" />
          </mxGeometry>
        </mxCell>
        <mxCell id="kOZsztwYuCCZvmPycqAU-191" style="edgeStyle=orthogonalEdgeStyle;rounded=0;orthogonalLoop=1;jettySize=auto;html=1;entryX=1;entryY=0.5;entryDx=0;entryDy=0;" parent="1" source="kOZsztwYuCCZvmPycqAU-183" target="kOZsztwYuCCZvmPycqAU-160" edge="1">
          <mxGeometry relative="1" as="geometry">
            <Array as="points">
              <mxPoint x="-1543" y="465" />
            </Array>
          </mxGeometry>
        </mxCell>
        <mxCell id="kOZsztwYuCCZvmPycqAU-192" value="OXI" style="edgeLabel;html=1;align=center;verticalAlign=middle;resizable=0;points=[];fontSize=9;" parent="kOZsztwYuCCZvmPycqAU-191" vertex="1" connectable="0">
          <mxGeometry x="0.0774" y="-2" relative="1" as="geometry">
            <mxPoint x="46" y="57" as="offset" />
          </mxGeometry>
        </mxCell>
        <mxCell id="kOZsztwYuCCZvmPycqAU-183" value="file_exists==1" style="rhombus;whiteSpace=wrap;html=1;rounded=0;shadow=1;labelBackgroundColor=none;strokeWidth=1;fontFamily=Verdana;fontSize=8;align=center;" parent="1" vertex="1">
          <mxGeometry x="-1593" y="540" width="100" height="60" as="geometry" />
        </mxCell>
        <mxCell id="kOZsztwYuCCZvmPycqAU-189" style="edgeStyle=orthogonalEdgeStyle;rounded=0;orthogonalLoop=1;jettySize=auto;html=1;entryX=0.5;entryY=1;entryDx=0;entryDy=0;" parent="1" source="kOZsztwYuCCZvmPycqAU-188" target="kOZsztwYuCCZvmPycqAU-160" edge="1">
          <mxGeometry relative="1" as="geometry" />
        </mxCell>
        <mxCell id="kOZsztwYuCCZvmPycqAU-188" value="ΔΙΑΓΡΑΦΗ ΑΡΧΕΙΟΥ ACTIVITIES.CSV" style="rounded=1;whiteSpace=wrap;html=1;shadow=1;labelBackgroundColor=none;strokeWidth=1;fontFamily=Verdana;fontSize=8;align=center;" parent="1" vertex="1">
          <mxGeometry x="-1820.5" y="540" width="110" height="60" as="geometry" />
        </mxCell>
        <mxCell id="kOZsztwYuCCZvmPycqAU-198" style="edgeStyle=orthogonalEdgeStyle;rounded=0;orthogonalLoop=1;jettySize=auto;html=1;entryX=0.5;entryY=1;entryDx=0;entryDy=0;" parent="1" source="kOZsztwYuCCZvmPycqAU-196" target="kOZsztwYuCCZvmPycqAU-155" edge="1">
          <mxGeometry relative="1" as="geometry" />
        </mxCell>
        <mxCell id="kOZsztwYuCCZvmPycqAU-200" value="&lt;font style=&quot;font-size: 9px;&quot;&gt;NAI&lt;/font&gt;" style="edgeLabel;html=1;align=center;verticalAlign=middle;resizable=0;points=[];" parent="kOZsztwYuCCZvmPycqAU-198" vertex="1" connectable="0">
          <mxGeometry x="-0.3388" y="-2" relative="1" as="geometry">
            <mxPoint x="15" y="13" as="offset" />
          </mxGeometry>
        </mxCell>
        <mxCell id="kOZsztwYuCCZvmPycqAU-202" style="edgeStyle=orthogonalEdgeStyle;rounded=0;orthogonalLoop=1;jettySize=auto;html=1;" parent="1" source="kOZsztwYuCCZvmPycqAU-196" target="kOZsztwYuCCZvmPycqAU-201" edge="1">
          <mxGeometry relative="1" as="geometry" />
        </mxCell>
        <mxCell id="kOZsztwYuCCZvmPycqAU-204" value="ΟΧΙ" style="edgeLabel;html=1;align=center;verticalAlign=middle;resizable=0;points=[];fontSize=9;" parent="kOZsztwYuCCZvmPycqAU-202" vertex="1" connectable="0">
          <mxGeometry x="0.2405" y="-5" relative="1" as="geometry">
            <mxPoint x="4" y="-15" as="offset" />
          </mxGeometry>
        </mxCell>
        <mxCell id="kOZsztwYuCCZvmPycqAU-196" value="file_exists==1" style="rhombus;whiteSpace=wrap;html=1;rounded=0;shadow=1;labelBackgroundColor=none;strokeWidth=1;fontFamily=Verdana;fontSize=8;align=center;" parent="1" vertex="1">
          <mxGeometry x="-940" y="210" width="100" height="60" as="geometry" />
        </mxCell>
        <mxCell id="kOZsztwYuCCZvmPycqAU-203" style="edgeStyle=orthogonalEdgeStyle;rounded=0;orthogonalLoop=1;jettySize=auto;html=1;" parent="1" source="kOZsztwYuCCZvmPycqAU-201" target="kOZsztwYuCCZvmPycqAU-119" edge="1">
          <mxGeometry relative="1" as="geometry" />
        </mxCell>
        <mxCell id="kOZsztwYuCCZvmPycqAU-201" value="ΕΙΔΟΠΟΙΗΣΗ ΟΤΙ ΤΟ ΑΡΧΕΙΟ ΔΕΝ ΥΠΑΡΧΕΙ .CSV" style="rounded=1;whiteSpace=wrap;html=1;shadow=1;labelBackgroundColor=none;strokeWidth=1;fontFamily=Verdana;fontSize=8;align=center;" parent="1" vertex="1">
          <mxGeometry x="-783" y="210" width="110" height="60" as="geometry" />
        </mxCell>
        <mxCell id="kOZsztwYuCCZvmPycqAU-357" style="edgeStyle=orthogonalEdgeStyle;rounded=0;orthogonalLoop=1;jettySize=auto;html=1;entryX=0;entryY=0.5;entryDx=0;entryDy=0;" parent="1" source="kOZsztwYuCCZvmPycqAU-207" target="kOZsztwYuCCZvmPycqAU-350" edge="1">
          <mxGeometry relative="1" as="geometry" />
        </mxCell>
        <mxCell id="kOZsztwYuCCZvmPycqAU-418" style="edgeStyle=orthogonalEdgeStyle;rounded=0;orthogonalLoop=1;jettySize=auto;html=1;exitX=0.5;exitY=1;exitDx=0;exitDy=0;entryX=0.5;entryY=0;entryDx=0;entryDy=0;" parent="1" source="kOZsztwYuCCZvmPycqAU-207" target="kOZsztwYuCCZvmPycqAU-417" edge="1">
          <mxGeometry relative="1" as="geometry" />
        </mxCell>
        <mxCell id="kOZsztwYuCCZvmPycqAU-207" value="ΥΠΑΡΧΟΥΝ ΑΡΧΕΙΑ CSV ΣΤΟ ΦΑΚΕΛΟ ΤΟΥ PROJECT;" style="rhombus;whiteSpace=wrap;html=1;rounded=0;shadow=1;labelBackgroundColor=none;strokeWidth=1;fontFamily=Verdana;fontSize=8;align=center;" parent="1" vertex="1">
          <mxGeometry x="242.5" y="2287" width="100" height="60" as="geometry" />
        </mxCell>
        <mxCell id="kOZsztwYuCCZvmPycqAU-215" style="edgeStyle=orthogonalEdgeStyle;rounded=0;orthogonalLoop=1;jettySize=auto;html=1;entryX=0.5;entryY=0;entryDx=0;entryDy=0;" parent="1" source="kOZsztwYuCCZvmPycqAU-216" target="kOZsztwYuCCZvmPycqAU-218" edge="1">
          <mxGeometry relative="1" as="geometry" />
        </mxCell>
        <mxCell id="kOZsztwYuCCZvmPycqAU-216" value="Start" style="strokeWidth=1;html=1;shape=mxgraph.flowchart.terminator;whiteSpace=wrap;rounded=0;shadow=1;labelBackgroundColor=none;fontFamily=Verdana;fontSize=8;align=center;" parent="1" vertex="1">
          <mxGeometry x="262.5" y="2007" width="60" height="30" as="geometry" />
        </mxCell>
        <mxCell id="kOZsztwYuCCZvmPycqAU-217" style="edgeStyle=orthogonalEdgeStyle;rounded=0;orthogonalLoop=1;jettySize=auto;html=1;entryX=0.5;entryY=0;entryDx=0;entryDy=0;" parent="1" source="kOZsztwYuCCZvmPycqAU-218" target="kOZsztwYuCCZvmPycqAU-229" edge="1">
          <mxGeometry relative="1" as="geometry" />
        </mxCell>
        <mxCell id="kOZsztwYuCCZvmPycqAU-218" value="&lt;font style=&quot;font-size: 9px;&quot;&gt;ΠΑΡΑΘΥΡΟ 1&lt;/font&gt;" style="ellipse;whiteSpace=wrap;html=1;aspect=fixed;" parent="1" vertex="1">
          <mxGeometry x="252.5" y="2077" width="80" height="80" as="geometry" />
        </mxCell>
        <mxCell id="kOZsztwYuCCZvmPycqAU-228" style="edgeStyle=orthogonalEdgeStyle;rounded=0;orthogonalLoop=1;jettySize=auto;html=1;entryX=0.5;entryY=0;entryDx=0;entryDy=0;" parent="1" source="kOZsztwYuCCZvmPycqAU-229" target="kOZsztwYuCCZvmPycqAU-207" edge="1">
          <mxGeometry relative="1" as="geometry" />
        </mxCell>
        <mxCell id="kOZsztwYuCCZvmPycqAU-229" value="ΕΜΦΑΝΙΣΗ ΚΟΥΜΠΙΟΥ &#39;ΔΑΙΧΕΙΡΗΣΗ ΧΡΗΣΤΩΝ&#39;" style="rounded=1;whiteSpace=wrap;html=1;shadow=1;labelBackgroundColor=none;strokeWidth=1;fontFamily=Verdana;fontSize=8;align=center;" parent="1" vertex="1">
          <mxGeometry x="237.5" y="2187" width="110" height="60" as="geometry" />
        </mxCell>
        <mxCell id="kOZsztwYuCCZvmPycqAU-364" style="edgeStyle=orthogonalEdgeStyle;rounded=0;orthogonalLoop=1;jettySize=auto;html=1;entryX=0.5;entryY=0;entryDx=0;entryDy=0;" parent="1" source="kOZsztwYuCCZvmPycqAU-238" target="kOZsztwYuCCZvmPycqAU-363" edge="1">
          <mxGeometry relative="1" as="geometry" />
        </mxCell>
        <mxCell id="kOZsztwYuCCZvmPycqAU-238" value="Ο ΧΡΗΣΤΗΣ ΕΠΙΛΕΓΕΙ ΕΝΑΝ ΧΡΗΣΤΗ ΑΠΟ ΤΗΝ ΛΙΣΤΑ" style="whiteSpace=wrap;html=1;rounded=0;shadow=1;labelBackgroundColor=none;strokeWidth=1;fontFamily=Verdana;fontSize=8;align=center;" parent="1" vertex="1">
          <mxGeometry x="527.5" y="2533.5" width="120" height="40" as="geometry" />
        </mxCell>
        <mxCell id="kOZsztwYuCCZvmPycqAU-239" style="edgeStyle=orthogonalEdgeStyle;rounded=0;orthogonalLoop=1;jettySize=auto;html=1;entryX=0.5;entryY=0;entryDx=0;entryDy=0;" parent="1" source="kOZsztwYuCCZvmPycqAU-240" target="kOZsztwYuCCZvmPycqAU-242" edge="1">
          <mxGeometry relative="1" as="geometry" />
        </mxCell>
        <mxCell id="kOZsztwYuCCZvmPycqAU-240" value="&lt;font style=&quot;font-size: 9px;&quot;&gt;ΠΑΡΑΘΥΡΟ 3&lt;/font&gt;" style="ellipse;whiteSpace=wrap;html=1;aspect=fixed;" parent="1" vertex="1">
          <mxGeometry x="548" y="2754" width="80" height="80" as="geometry" />
        </mxCell>
        <mxCell id="kOZsztwYuCCZvmPycqAU-241" style="edgeStyle=orthogonalEdgeStyle;rounded=0;orthogonalLoop=1;jettySize=auto;html=1;entryX=0.5;entryY=0;entryDx=0;entryDy=0;" parent="1" source="kOZsztwYuCCZvmPycqAU-242" target="kOZsztwYuCCZvmPycqAU-244" edge="1">
          <mxGeometry relative="1" as="geometry" />
        </mxCell>
        <mxCell id="kOZsztwYuCCZvmPycqAU-242" value="ΕΜΦΑΝΙΣΗ ΤΩΝ ΔΡΑΣΤΗΡΙΩΤΗΤΩΝ" style="rounded=1;whiteSpace=wrap;html=1;shadow=1;labelBackgroundColor=none;strokeWidth=1;fontFamily=Verdana;fontSize=8;align=center;" parent="1" vertex="1">
          <mxGeometry x="533" y="2874" width="110" height="60" as="geometry" />
        </mxCell>
        <mxCell id="kOZsztwYuCCZvmPycqAU-243" style="edgeStyle=orthogonalEdgeStyle;rounded=0;orthogonalLoop=1;jettySize=auto;html=1;entryX=0.5;entryY=0;entryDx=0;entryDy=0;" parent="1" source="kOZsztwYuCCZvmPycqAU-244" target="kOZsztwYuCCZvmPycqAU-274" edge="1">
          <mxGeometry relative="1" as="geometry" />
        </mxCell>
        <mxCell id="kOZsztwYuCCZvmPycqAU-244" value="ΕΜΦΑΝΙΣΗ ΤΩΝ ΕΠΙΛΟΓΩΝ ΤΑΞΙΝΟΜΗΣΗΣ ΚΑΙ ΓΡΑΦΗΜΑΤΩΝ" style="rounded=1;whiteSpace=wrap;html=1;shadow=1;labelBackgroundColor=none;strokeWidth=1;fontFamily=Verdana;fontSize=8;align=center;" parent="1" vertex="1">
          <mxGeometry x="533" y="2974" width="110" height="60" as="geometry" />
        </mxCell>
        <mxCell id="kOZsztwYuCCZvmPycqAU-245" style="edgeStyle=orthogonalEdgeStyle;rounded=0;orthogonalLoop=1;jettySize=auto;html=1;" parent="1" source="kOZsztwYuCCZvmPycqAU-246" target="kOZsztwYuCCZvmPycqAU-248" edge="1">
          <mxGeometry relative="1" as="geometry" />
        </mxCell>
        <mxCell id="kOZsztwYuCCZvmPycqAU-246" value="ΕΜΦΑΝΙΣΗ 4 ΠΕΔΙΩΝ ΓΙΑ ΤΗΝ ΔΗΜΙΟΥΡΓΙΑ ΝΕΑΣ ΔΡΑΣΤΗΡΙΟΤΗΤΑΣ ΚΑΙ ΤΟ ΚΟΥΜΠΙ &#39;ΝΕΑ ΔΡΑΣΤΗΡΙΟΤΗΤΑ&#39;" style="rounded=1;whiteSpace=wrap;html=1;shadow=1;labelBackgroundColor=none;strokeWidth=1;fontFamily=Verdana;fontSize=8;align=center;" parent="1" vertex="1">
          <mxGeometry x="533" y="3310" width="110" height="60" as="geometry" />
        </mxCell>
        <mxCell id="kOZsztwYuCCZvmPycqAU-247" style="edgeStyle=orthogonalEdgeStyle;rounded=0;orthogonalLoop=1;jettySize=auto;html=1;entryX=1;entryY=0.5;entryDx=0;entryDy=0;" parent="1" source="kOZsztwYuCCZvmPycqAU-248" target="kOZsztwYuCCZvmPycqAU-253" edge="1">
          <mxGeometry relative="1" as="geometry" />
        </mxCell>
        <mxCell id="kOZsztwYuCCZvmPycqAU-248" value="Ο ΧΡΗΣΤΗΣ ΕΙΣΑΓΕΙ ΝΕΑ ΔΡΑΣΤΗΡΙΟΤΗΤΑ" style="whiteSpace=wrap;html=1;rounded=0;shadow=1;labelBackgroundColor=none;strokeWidth=1;fontFamily=Verdana;fontSize=8;align=center;" parent="1" vertex="1">
          <mxGeometry x="528" y="3440" width="120" height="40" as="geometry" />
        </mxCell>
        <mxCell id="kOZsztwYuCCZvmPycqAU-249" style="edgeStyle=orthogonalEdgeStyle;rounded=0;orthogonalLoop=1;jettySize=auto;html=1;" parent="1" source="kOZsztwYuCCZvmPycqAU-253" target="kOZsztwYuCCZvmPycqAU-255" edge="1">
          <mxGeometry relative="1" as="geometry" />
        </mxCell>
        <mxCell id="kOZsztwYuCCZvmPycqAU-250" value="&lt;font style=&quot;font-size: 9px;&quot;&gt;OXI&lt;/font&gt;" style="edgeLabel;html=1;align=center;verticalAlign=middle;resizable=0;points=[];" parent="kOZsztwYuCCZvmPycqAU-249" vertex="1" connectable="0">
          <mxGeometry x="-0.1333" y="1" relative="1" as="geometry">
            <mxPoint x="14" y="-16" as="offset" />
          </mxGeometry>
        </mxCell>
        <mxCell id="kOZsztwYuCCZvmPycqAU-251" style="edgeStyle=orthogonalEdgeStyle;rounded=0;orthogonalLoop=1;jettySize=auto;html=1;entryX=0.5;entryY=1;entryDx=0;entryDy=0;" parent="1" source="kOZsztwYuCCZvmPycqAU-253" target="kOZsztwYuCCZvmPycqAU-257" edge="1">
          <mxGeometry relative="1" as="geometry">
            <mxPoint x="313" y="3194" as="targetPoint" />
          </mxGeometry>
        </mxCell>
        <mxCell id="kOZsztwYuCCZvmPycqAU-252" value="&lt;font style=&quot;font-size: 9px;&quot;&gt;NAI&lt;/font&gt;" style="edgeLabel;html=1;align=center;verticalAlign=middle;resizable=0;points=[];" parent="kOZsztwYuCCZvmPycqAU-251" vertex="1" connectable="0">
          <mxGeometry x="0.2571" y="-1" relative="1" as="geometry">
            <mxPoint x="12" y="167" as="offset" />
          </mxGeometry>
        </mxCell>
        <mxCell id="kOZsztwYuCCZvmPycqAU-253" value="Ο ΧΡΗΣΤΗΣ ΕΧΕΙ ΥΠΕΡΒΕΙ ΤΙΣ ΕΒΔΟΜΑΔΙΑΙΕΣ ΩΡΕΣ;" style="rhombus;whiteSpace=wrap;html=1;rounded=0;shadow=1;labelBackgroundColor=none;strokeWidth=1;fontFamily=Verdana;fontSize=8;align=center;" parent="1" vertex="1">
          <mxGeometry x="238" y="3410" width="150" height="100" as="geometry" />
        </mxCell>
        <mxCell id="kOZsztwYuCCZvmPycqAU-254" style="edgeStyle=orthogonalEdgeStyle;rounded=0;orthogonalLoop=1;jettySize=auto;html=1;" parent="1" source="kOZsztwYuCCZvmPycqAU-255" target="kOZsztwYuCCZvmPycqAU-258" edge="1">
          <mxGeometry relative="1" as="geometry">
            <mxPoint x="313" y="3730" as="targetPoint" />
          </mxGeometry>
        </mxCell>
        <mxCell id="kOZsztwYuCCZvmPycqAU-255" value="ΥΠΑΡΧΟΥΝ ΚΑΙ ΟΙ 4 ΤΙΜΕΣ;" style="rhombus;whiteSpace=wrap;html=1;rounded=0;shadow=1;labelBackgroundColor=none;strokeWidth=1;fontFamily=Verdana;fontSize=8;align=center;" parent="1" vertex="1">
          <mxGeometry x="238" y="3570" width="150" height="100" as="geometry" />
        </mxCell>
        <mxCell id="kOZsztwYuCCZvmPycqAU-256" style="edgeStyle=orthogonalEdgeStyle;rounded=0;orthogonalLoop=1;jettySize=auto;html=1;entryX=0;entryY=0.5;entryDx=0;entryDy=0;" parent="1" source="kOZsztwYuCCZvmPycqAU-257" target="kOZsztwYuCCZvmPycqAU-240" edge="1">
          <mxGeometry relative="1" as="geometry">
            <Array as="points">
              <mxPoint x="313" y="2794" />
            </Array>
          </mxGeometry>
        </mxCell>
        <mxCell id="kOZsztwYuCCZvmPycqAU-257" value="ΕΜΦΑΝΙΣΗ ΕΙΔΟΠΟΙΗΣΕΙΣ ΟΤΙ Ο ΧΡΗΣΤΗΣ ΕΧΕΙ ΥΠΕΡΒΕΙ ΤΙΣ ΕΒΔΟΜΑΔΙΑΙΕΣ ΩΡΕΣ (168)" style="rounded=1;whiteSpace=wrap;html=1;shadow=1;labelBackgroundColor=none;strokeWidth=1;fontFamily=Verdana;fontSize=8;align=center;" parent="1" vertex="1">
          <mxGeometry x="258" y="3054" width="110" height="60" as="geometry" />
        </mxCell>
        <mxCell id="kOZsztwYuCCZvmPycqAU-258" value="ΝΕΑ ΕΓΓΡΑΦΗ ΣΤΟ CSV ΑΡΧΕΙΟ" style="rounded=1;whiteSpace=wrap;html=1;shadow=1;labelBackgroundColor=none;strokeWidth=1;fontFamily=Verdana;fontSize=8;align=center;" parent="1" vertex="1">
          <mxGeometry x="258" y="3750" width="110" height="60" as="geometry" />
        </mxCell>
        <mxCell id="kOZsztwYuCCZvmPycqAU-273" style="edgeStyle=orthogonalEdgeStyle;rounded=0;orthogonalLoop=1;jettySize=auto;html=1;entryX=0;entryY=0.5;entryDx=0;entryDy=0;" parent="1" source="kOZsztwYuCCZvmPycqAU-274" target="kOZsztwYuCCZvmPycqAU-279" edge="1">
          <mxGeometry relative="1" as="geometry" />
        </mxCell>
        <mxCell id="kOZsztwYuCCZvmPycqAU-383" style="edgeStyle=orthogonalEdgeStyle;rounded=0;orthogonalLoop=1;jettySize=auto;html=1;entryX=0.5;entryY=0;entryDx=0;entryDy=0;" parent="1" source="kOZsztwYuCCZvmPycqAU-274" target="kOZsztwYuCCZvmPycqAU-382" edge="1">
          <mxGeometry relative="1" as="geometry" />
        </mxCell>
        <mxCell id="kOZsztwYuCCZvmPycqAU-274" value="ΕΜΦΑΝΙΣΗ ΤΟΥ ΚΟΥΜΠΙΟΥ &#39;ΓΡΑΦΗΜΑΤΑ&#39;" style="rounded=1;whiteSpace=wrap;html=1;shadow=1;labelBackgroundColor=none;strokeWidth=1;fontFamily=Verdana;fontSize=8;align=center;" parent="1" vertex="1">
          <mxGeometry x="533" y="3074" width="110" height="60" as="geometry" />
        </mxCell>
        <mxCell id="kOZsztwYuCCZvmPycqAU-381" style="edgeStyle=orthogonalEdgeStyle;rounded=0;orthogonalLoop=1;jettySize=auto;html=1;entryX=0.5;entryY=1;entryDx=0;entryDy=0;" parent="1" source="kOZsztwYuCCZvmPycqAU-276" target="kOZsztwYuCCZvmPycqAU-277" edge="1">
          <mxGeometry relative="1" as="geometry" />
        </mxCell>
        <mxCell id="kOZsztwYuCCZvmPycqAU-276" value="&lt;font style=&quot;font-size: 9px;&quot;&gt;ΠΑΡΑΘΥΡΟ 4&lt;/font&gt;" style="ellipse;whiteSpace=wrap;html=1;aspect=fixed;" parent="1" vertex="1">
          <mxGeometry x="898" y="3064" width="80" height="80" as="geometry" />
        </mxCell>
        <mxCell id="kOZsztwYuCCZvmPycqAU-277" value="ΕΜΦΑΝΙΣΗ ΤΩΝ ΓΡΑΦΗΜΑΤΩΝ" style="rounded=1;whiteSpace=wrap;html=1;shadow=1;labelBackgroundColor=none;strokeWidth=1;fontFamily=Verdana;fontSize=8;align=center;" parent="1" vertex="1">
          <mxGeometry x="883" y="2959" width="110" height="60" as="geometry" />
        </mxCell>
        <mxCell id="kOZsztwYuCCZvmPycqAU-278" style="edgeStyle=orthogonalEdgeStyle;rounded=0;orthogonalLoop=1;jettySize=auto;html=1;entryX=0;entryY=0.5;entryDx=0;entryDy=0;" parent="1" source="kOZsztwYuCCZvmPycqAU-279" target="kOZsztwYuCCZvmPycqAU-276" edge="1">
          <mxGeometry relative="1" as="geometry" />
        </mxCell>
        <mxCell id="kOZsztwYuCCZvmPycqAU-279" value="Ο ΧΡΗΣΤΗΣ ΠΑΤΑΕΙ ΤΟ ΚΟΥΜΠΙ ΓΡΑΦΗΜΑΤΑ" style="whiteSpace=wrap;html=1;rounded=0;shadow=1;labelBackgroundColor=none;strokeWidth=1;fontFamily=Verdana;fontSize=8;align=center;" parent="1" vertex="1">
          <mxGeometry x="698" y="3084" width="120" height="40" as="geometry" />
        </mxCell>
        <mxCell id="kOZsztwYuCCZvmPycqAU-280" style="edgeStyle=orthogonalEdgeStyle;rounded=0;orthogonalLoop=1;jettySize=auto;html=1;" parent="1" source="kOZsztwYuCCZvmPycqAU-281" target="kOZsztwYuCCZvmPycqAU-294" edge="1">
          <mxGeometry relative="1" as="geometry" />
        </mxCell>
        <mxCell id="kOZsztwYuCCZvmPycqAU-281" value="&lt;font style=&quot;font-size: 9px;&quot;&gt;Ο ΧΡΗΣΤΗΣ ΠΑΤΑΕΙ ΤΟ ΚΟΥΜΠΙ &#39;ΔΙΑΧΕΙΡΗΣΗ ΧΡΗΣΤΩΝ&#39;&lt;/font&gt;" style="rounded=0;whiteSpace=wrap;html=1;" parent="1" vertex="1">
          <mxGeometry x="232.5" y="2506" width="120" height="60" as="geometry" />
        </mxCell>
        <mxCell id="kOZsztwYuCCZvmPycqAU-422" style="edgeStyle=orthogonalEdgeStyle;rounded=0;orthogonalLoop=1;jettySize=auto;html=1;" parent="1" source="kOZsztwYuCCZvmPycqAU-288" target="kOZsztwYuCCZvmPycqAU-294" edge="1">
          <mxGeometry relative="1" as="geometry" />
        </mxCell>
        <mxCell id="kOZsztwYuCCZvmPycqAU-288" value="ΕΜΦΑΝΙΣΗ ΕΙΔΟΠΟΙΗΣΗΣ ΟΤΙ Ο ΧΡΗΣΤΗΣ ΥΠΑΡΧΕΙ&amp;nbsp;" style="rounded=1;whiteSpace=wrap;html=1;shadow=1;labelBackgroundColor=none;strokeWidth=1;fontFamily=Verdana;fontSize=8;align=center;" parent="1" vertex="1">
          <mxGeometry x="-400" y="2232" width="110" height="60" as="geometry" />
        </mxCell>
        <mxCell id="kOZsztwYuCCZvmPycqAU-291" style="edgeStyle=orthogonalEdgeStyle;rounded=0;orthogonalLoop=1;jettySize=auto;html=1;exitX=0;exitY=0.5;exitDx=0;exitDy=0;entryX=1;entryY=0.5;entryDx=0;entryDy=0;" parent="1" source="kOZsztwYuCCZvmPycqAU-292" target="kOZsztwYuCCZvmPycqAU-320" edge="1">
          <mxGeometry relative="1" as="geometry" />
        </mxCell>
        <mxCell id="kOZsztwYuCCZvmPycqAU-406" style="edgeStyle=orthogonalEdgeStyle;rounded=0;orthogonalLoop=1;jettySize=auto;html=1;" parent="1" source="kOZsztwYuCCZvmPycqAU-292" target="kOZsztwYuCCZvmPycqAU-405" edge="1">
          <mxGeometry relative="1" as="geometry" />
        </mxCell>
        <mxCell id="kOZsztwYuCCZvmPycqAU-292" value="ΕΜΦΑΝΙΣΗ ΛΕΙΤΟΥΡΓΙΑΣ DRAG &amp;amp; DROP ΚΑΙ ΚΟΥΜΠΙΟΥ ΔΗΜΙΟΥΡΓΙΑ ΧΡΗΣΤΗ" style="rounded=1;whiteSpace=wrap;html=1;shadow=1;labelBackgroundColor=none;strokeWidth=1;fontFamily=Verdana;fontSize=8;align=center;" parent="1" vertex="1">
          <mxGeometry x="-72" y="2506" width="110" height="60" as="geometry" />
        </mxCell>
        <mxCell id="kOZsztwYuCCZvmPycqAU-369" style="edgeStyle=orthogonalEdgeStyle;rounded=0;orthogonalLoop=1;jettySize=auto;html=1;" parent="1" source="kOZsztwYuCCZvmPycqAU-294" target="kOZsztwYuCCZvmPycqAU-292" edge="1">
          <mxGeometry relative="1" as="geometry" />
        </mxCell>
        <mxCell id="kOZsztwYuCCZvmPycqAU-294" value="&lt;font style=&quot;font-size: 9px;&quot;&gt;ΠΑΡΑΘΥΡΟ 2&lt;/font&gt;" style="ellipse;whiteSpace=wrap;html=1;aspect=fixed;" parent="1" vertex="1">
          <mxGeometry x="112.5" y="2496" width="80" height="80" as="geometry" />
        </mxCell>
        <mxCell id="kOZsztwYuCCZvmPycqAU-316" style="edgeStyle=orthogonalEdgeStyle;rounded=0;orthogonalLoop=1;jettySize=auto;html=1;entryX=1;entryY=0.5;entryDx=0;entryDy=0;" parent="1" source="kOZsztwYuCCZvmPycqAU-318" target="kOZsztwYuCCZvmPycqAU-340" edge="1">
          <mxGeometry relative="1" as="geometry" />
        </mxCell>
        <mxCell id="kOZsztwYuCCZvmPycqAU-317" value="NAI" style="edgeLabel;html=1;align=center;verticalAlign=middle;resizable=0;points=[];fontSize=9;" parent="kOZsztwYuCCZvmPycqAU-316" vertex="1" connectable="0">
          <mxGeometry x="0.0063" y="1" relative="1" as="geometry">
            <mxPoint x="18" y="-13" as="offset" />
          </mxGeometry>
        </mxCell>
        <mxCell id="kOZsztwYuCCZvmPycqAU-318" value="ΤΟ ΑΡΧΕΙO&amp;nbsp;&lt;span style=&quot;background-color: initial;&quot;&gt;ΕΙΝΑΙ ΣΩΣΤΑ&amp;nbsp;&lt;/span&gt;&lt;div&gt;&lt;div&gt;ΔΟΜΗΜΕΝΟ;&amp;nbsp;&lt;span style=&quot;background-color: initial;&quot;&gt;(4 ΣΤΟΙΧΕΙΑ&amp;nbsp;&lt;/span&gt;&lt;/div&gt;&lt;div&gt;&lt;span style=&quot;background-color: initial;&quot;&gt;ΑΝΑ ΣΕΙΡΑ)&lt;/span&gt;&lt;/div&gt;&lt;/div&gt;" style="rhombus;whiteSpace=wrap;html=1;rounded=0;shadow=1;labelBackgroundColor=none;strokeWidth=1;fontFamily=Verdana;fontSize=8;align=center;" parent="1" vertex="1">
          <mxGeometry x="-756" y="2541" width="130" height="90" as="geometry" />
        </mxCell>
        <mxCell id="kOZsztwYuCCZvmPycqAU-319" style="edgeStyle=orthogonalEdgeStyle;rounded=0;orthogonalLoop=1;jettySize=auto;html=1;entryX=1;entryY=0.5;entryDx=0;entryDy=0;" parent="1" source="kOZsztwYuCCZvmPycqAU-320" target="kOZsztwYuCCZvmPycqAU-324" edge="1">
          <mxGeometry relative="1" as="geometry" />
        </mxCell>
        <mxCell id="kOZsztwYuCCZvmPycqAU-320" value="&lt;font style=&quot;font-size: 9px;&quot;&gt;Ο ΧΡΗΣΤΗΣ ΚΑΝΕΙ DRAG AND DROP ΕΝΑ ΑΡΧΕΙΟ&lt;/font&gt;&lt;span style=&quot;color: rgba(0, 0, 0, 0); font-family: monospace; font-size: 0px; text-align: start; text-wrap: nowrap;&quot;&gt;%3CmxGraphModel%3E%3Croot%3E%3CmxCell%20id%3D%220%22%2F%3E%3CmxCell%20id%3D%221%22%20parent%3D%220%22%2F%3E%3CmxCell%20id%3D%222%22%20value%3D%22%CE%A4%CE%9F%20%CE%91%CE%A1%CE%A7%CE%95%CE%99%CE%98%26amp%3Bnbsp%3B%26lt%3Bdiv%26gt%3B%CE%95%CE%99%CE%9D%CE%91%CE%99%20%CE%A3%CE%A9%CE%A3%CE%A4%CE%91%26amp%3Bnbsp%3B%26lt%3Bdiv%26gt%3B%CE%94%CE%9F%CE%9C%CE%97%CE%9C%CE%95%CE%9D%CE%9F%3B%20(5%20%CE%A3%CE%A4%CE%9F%CE%99%CE%A7%CE%95%CE%99%CE%91%20%CE%91%CE%9D%CE%91%20%CE%A3%CE%95%CE%99%CE%A1%CE%91)%26lt%3B%2Fdiv%26gt%3B%26lt%3B%2Fdiv%26gt%3B%22%20style%3D%22rhombus%3BwhiteSpace%3Dwrap%3Bhtml%3D1%3Brounded%3D0%3Bshadow%3D1%3BlabelBackgroundColor%3Dnone%3BstrokeWidth%3D1%3BfontFamily%3DVerdana%3BfontSize%3D8%3Balign%3Dcenter%3B%22%20vertex%3D%221%22%20parent%3D%221%22%3E%3CmxGeometry%20x%3D%22480%22%20y%3D%22330%22%20width%3D%22120%22%20height%3D%2280%22%20as%3D%22geometry%22%2F%3E%3C%2FmxCell%3E%3C%2Froot%3E%3C%2FmxGraphModel%3E&lt;/span&gt;" style="rounded=0;whiteSpace=wrap;html=1;" parent="1" vertex="1">
          <mxGeometry x="-276" y="2556" width="120" height="60" as="geometry" />
        </mxCell>
        <mxCell id="kOZsztwYuCCZvmPycqAU-423" style="edgeStyle=orthogonalEdgeStyle;rounded=0;orthogonalLoop=1;jettySize=auto;html=1;entryX=0;entryY=0.5;entryDx=0;entryDy=0;" parent="1" source="kOZsztwYuCCZvmPycqAU-322" target="kOZsztwYuCCZvmPycqAU-240" edge="1">
          <mxGeometry relative="1" as="geometry">
            <Array as="points">
              <mxPoint x="-1144" y="2997" />
              <mxPoint x="-249" y="2997" />
              <mxPoint x="-249" y="2943" />
              <mxPoint x="234" y="2943" />
              <mxPoint x="234" y="2794" />
            </Array>
          </mxGeometry>
        </mxCell>
        <mxCell id="kOZsztwYuCCZvmPycqAU-322" value="ΑΝΤΙΓΡΑΦΗ ΤΟΥ ΑΡΧΕΙΟΥ ΣΤΟ ΦΑΚΕΛΟ ΤΟΥ PROJECT ΜΕ ΟΝΟΜΑ ACTIVITIES.CSV(&lt;font color=&quot;#ff0000&quot;&gt;script_dir = os.path.dirname(os.path.abspath(__file__))&lt;/font&gt;)" style="rounded=1;whiteSpace=wrap;html=1;shadow=1;labelBackgroundColor=none;strokeWidth=1;fontFamily=Verdana;fontSize=8;align=center;" parent="1" vertex="1">
          <mxGeometry x="-1242" y="2551" width="195" height="70" as="geometry" />
        </mxCell>
        <mxCell id="kOZsztwYuCCZvmPycqAU-323" style="edgeStyle=orthogonalEdgeStyle;rounded=0;orthogonalLoop=1;jettySize=auto;html=1;entryX=1;entryY=0.5;entryDx=0;entryDy=0;" parent="1" source="kOZsztwYuCCZvmPycqAU-324" target="kOZsztwYuCCZvmPycqAU-327" edge="1">
          <mxGeometry relative="1" as="geometry" />
        </mxCell>
        <mxCell id="kOZsztwYuCCZvmPycqAU-324" value="ΕΛΕΓΧΟΣ ΑΝ ΤΟ ΑΡΧΕΙΟ ΕΙΝΑΙ ΤΥΠΟΥ .CSV" style="rounded=1;whiteSpace=wrap;html=1;shadow=1;labelBackgroundColor=none;strokeWidth=1;fontFamily=Verdana;fontSize=8;align=center;" parent="1" vertex="1">
          <mxGeometry x="-416" y="2556" width="110" height="60" as="geometry" />
        </mxCell>
        <mxCell id="kOZsztwYuCCZvmPycqAU-325" style="edgeStyle=orthogonalEdgeStyle;rounded=0;orthogonalLoop=1;jettySize=auto;html=1;entryX=1;entryY=0.5;entryDx=0;entryDy=0;" parent="1" source="kOZsztwYuCCZvmPycqAU-327" target="kOZsztwYuCCZvmPycqAU-318" edge="1">
          <mxGeometry relative="1" as="geometry" />
        </mxCell>
        <mxCell id="kOZsztwYuCCZvmPycqAU-326" value="NAI" style="edgeLabel;html=1;align=center;verticalAlign=middle;resizable=0;points=[];fontSize=9;" parent="kOZsztwYuCCZvmPycqAU-325" vertex="1" connectable="0">
          <mxGeometry x="-0.3381" y="-1" relative="1" as="geometry">
            <mxPoint x="10" y="-9" as="offset" />
          </mxGeometry>
        </mxCell>
        <mxCell id="kOZsztwYuCCZvmPycqAU-327" value="ΤΟ ΑΡΧΕΙΟ ΕΙΝΑΙ ΤΥΠΟΥ .CSV;" style="rhombus;whiteSpace=wrap;html=1;rounded=0;shadow=1;labelBackgroundColor=none;strokeWidth=1;fontFamily=Verdana;fontSize=8;align=center;" parent="1" vertex="1">
          <mxGeometry x="-566" y="2556" width="100" height="60" as="geometry" />
        </mxCell>
        <mxCell id="kOZsztwYuCCZvmPycqAU-328" style="edgeStyle=orthogonalEdgeStyle;rounded=0;orthogonalLoop=1;jettySize=auto;html=1;entryX=0.5;entryY=0;entryDx=0;entryDy=0;" parent="1" source="kOZsztwYuCCZvmPycqAU-329" target="kOZsztwYuCCZvmPycqAU-294" edge="1">
          <mxGeometry relative="1" as="geometry">
            <mxPoint x="126" y="2385" as="targetPoint" />
            <Array as="points">
              <mxPoint x="152" y="2481" />
            </Array>
          </mxGeometry>
        </mxCell>
        <mxCell id="kOZsztwYuCCZvmPycqAU-329" value="ΕΙΔΟΠΟΙΗΣΗ ΟΤΙ ΤΟ ΑΡΧΕΙΟ ΔΕΝ ΕΙΝΑΙ ΤΥΠΟΥ .CSV" style="rounded=1;whiteSpace=wrap;html=1;shadow=1;labelBackgroundColor=none;strokeWidth=1;fontFamily=Verdana;fontSize=8;align=center;" parent="1" vertex="1">
          <mxGeometry x="-400" y="2451" width="110" height="60" as="geometry" />
        </mxCell>
        <mxCell id="kOZsztwYuCCZvmPycqAU-330" style="edgeStyle=orthogonalEdgeStyle;rounded=0;orthogonalLoop=1;jettySize=auto;html=1;entryX=0;entryY=0.5;entryDx=0;entryDy=0;" parent="1" source="kOZsztwYuCCZvmPycqAU-327" target="kOZsztwYuCCZvmPycqAU-329" edge="1">
          <mxGeometry relative="1" as="geometry">
            <Array as="points">
              <mxPoint x="-516" y="2481" />
            </Array>
            <mxPoint x="-441" y="2502" as="targetPoint" />
          </mxGeometry>
        </mxCell>
        <mxCell id="kOZsztwYuCCZvmPycqAU-331" value="&lt;font style=&quot;font-size: 9px;&quot;&gt;OXI&lt;/font&gt;" style="edgeLabel;html=1;align=center;verticalAlign=middle;resizable=0;points=[];" parent="kOZsztwYuCCZvmPycqAU-330" vertex="1" connectable="0">
          <mxGeometry x="-0.5892" relative="1" as="geometry">
            <mxPoint x="15" y="24" as="offset" />
          </mxGeometry>
        </mxCell>
        <mxCell id="kOZsztwYuCCZvmPycqAU-332" style="edgeStyle=orthogonalEdgeStyle;rounded=0;orthogonalLoop=1;jettySize=auto;html=1;" parent="1" source="kOZsztwYuCCZvmPycqAU-333" target="kOZsztwYuCCZvmPycqAU-294" edge="1">
          <mxGeometry relative="1" as="geometry" />
        </mxCell>
        <mxCell id="kOZsztwYuCCZvmPycqAU-333" value="ΕΙΔΟΠΟΙΗΣΗ ΟΤΙ ΤΟ ΑΡΧΕΙΟ ΔΕΝ ΕΙΝΑΙ ΣΩΣΤΑ ΔΟΜΗΜΕΝΟ Ή ΟΤΙ ΕΙΝΑΙ ΑΔΕΙΟ" style="rounded=1;whiteSpace=wrap;html=1;shadow=1;labelBackgroundColor=none;strokeWidth=1;fontFamily=Verdana;fontSize=8;align=center;" parent="1" vertex="1">
          <mxGeometry x="-400" y="2367" width="110" height="60" as="geometry" />
        </mxCell>
        <mxCell id="kOZsztwYuCCZvmPycqAU-334" style="edgeStyle=orthogonalEdgeStyle;rounded=0;orthogonalLoop=1;jettySize=auto;html=1;entryX=0.008;entryY=0.594;entryDx=0;entryDy=0;entryPerimeter=0;" parent="1" source="kOZsztwYuCCZvmPycqAU-318" target="kOZsztwYuCCZvmPycqAU-333" edge="1">
          <mxGeometry relative="1" as="geometry">
            <Array as="points">
              <mxPoint x="-691" y="2403" />
            </Array>
          </mxGeometry>
        </mxCell>
        <mxCell id="kOZsztwYuCCZvmPycqAU-335" value="&lt;font style=&quot;font-size: 9px;&quot;&gt;ΟΧΙ&lt;/font&gt;" style="edgeLabel;html=1;align=center;verticalAlign=middle;resizable=0;points=[];" parent="kOZsztwYuCCZvmPycqAU-334" vertex="1" connectable="0">
          <mxGeometry x="-0.661" y="3" relative="1" as="geometry">
            <mxPoint x="21" y="66" as="offset" />
          </mxGeometry>
        </mxCell>
        <mxCell id="kOZsztwYuCCZvmPycqAU-370" style="edgeStyle=orthogonalEdgeStyle;rounded=0;orthogonalLoop=1;jettySize=auto;html=1;entryX=1;entryY=0.5;entryDx=0;entryDy=0;" parent="1" source="kOZsztwYuCCZvmPycqAU-340" target="kOZsztwYuCCZvmPycqAU-322" edge="1">
          <mxGeometry relative="1" as="geometry">
            <mxPoint x="-1233" y="2493" as="targetPoint" />
            <Array as="points">
              <mxPoint x="-1044" y="2586" />
              <mxPoint x="-1044" y="2586" />
            </Array>
          </mxGeometry>
        </mxCell>
        <mxCell id="kOZsztwYuCCZvmPycqAU-371" value="&lt;font style=&quot;font-size: 9px;&quot;&gt;ΟΧΙ&lt;/font&gt;" style="edgeLabel;html=1;align=center;verticalAlign=middle;resizable=0;points=[];" parent="kOZsztwYuCCZvmPycqAU-370" vertex="1" connectable="0">
          <mxGeometry x="-0.719" y="-1" relative="1" as="geometry">
            <mxPoint x="10" y="-9" as="offset" />
          </mxGeometry>
        </mxCell>
        <mxCell id="kOZsztwYuCCZvmPycqAU-420" style="edgeStyle=orthogonalEdgeStyle;rounded=0;orthogonalLoop=1;jettySize=auto;html=1;entryX=0;entryY=0.5;entryDx=0;entryDy=0;" parent="1" source="kOZsztwYuCCZvmPycqAU-340" target="kOZsztwYuCCZvmPycqAU-288" edge="1">
          <mxGeometry relative="1" as="geometry">
            <Array as="points">
              <mxPoint x="-855" y="2262" />
            </Array>
          </mxGeometry>
        </mxCell>
        <mxCell id="kOZsztwYuCCZvmPycqAU-421" value="ΝΑΙ" style="edgeLabel;html=1;align=center;verticalAlign=middle;resizable=0;points=[];fontSize=9;" parent="kOZsztwYuCCZvmPycqAU-420" vertex="1" connectable="0">
          <mxGeometry x="-0.833" y="1" relative="1" as="geometry">
            <mxPoint x="16" y="48" as="offset" />
          </mxGeometry>
        </mxCell>
        <mxCell id="kOZsztwYuCCZvmPycqAU-340" value="ΥΠΑΡΧΕΙ ΑΛΛΟ CSV ΑΡΧΕΙΟ ΜΕ ΤΟ ΙΔΙΟ ΟΝΟΜΑ" style="rhombus;whiteSpace=wrap;html=1;rounded=0;shadow=1;labelBackgroundColor=none;strokeWidth=1;fontFamily=Verdana;fontSize=8;align=center;" parent="1" vertex="1">
          <mxGeometry x="-909" y="2533.5" width="108" height="105" as="geometry" />
        </mxCell>
        <mxCell id="kOZsztwYuCCZvmPycqAU-359" style="edgeStyle=orthogonalEdgeStyle;rounded=0;orthogonalLoop=1;jettySize=auto;html=1;entryX=0.5;entryY=0;entryDx=0;entryDy=0;" parent="1" source="kOZsztwYuCCZvmPycqAU-350" target="kOZsztwYuCCZvmPycqAU-238" edge="1">
          <mxGeometry relative="1" as="geometry" />
        </mxCell>
        <mxCell id="kOZsztwYuCCZvmPycqAU-350" value="ΕΜΦΑΝΙΣΗ DROPDOWN ΜΕ ΛΙΣΤΑ ΤΩΝ ΧΡΗΣΤΩΝ" style="rounded=1;whiteSpace=wrap;html=1;shadow=1;labelBackgroundColor=none;strokeWidth=1;fontFamily=Verdana;fontSize=8;align=center;" parent="1" vertex="1">
          <mxGeometry x="417.5" y="2287" width="110" height="60" as="geometry" />
        </mxCell>
        <mxCell id="kOZsztwYuCCZvmPycqAU-361" value="&lt;font style=&quot;font-size: 10px;&quot;&gt;ΧΡΗΣΤΗΣ=ΑΡΧΕΙΟ.CSV&lt;/font&gt;" style="shape=note;strokeWidth=2;fontSize=14;size=20;whiteSpace=wrap;html=1;fillColor=#fff2cc;strokeColor=#d6b656;fontColor=#666600;" parent="1" vertex="1">
          <mxGeometry x="490" y="2142" width="140" height="54" as="geometry" />
        </mxCell>
        <mxCell id="kOZsztwYuCCZvmPycqAU-362" style="edgeStyle=orthogonalEdgeStyle;rounded=0;orthogonalLoop=1;jettySize=auto;html=1;entryX=0.5;entryY=1;entryDx=0;entryDy=0;entryPerimeter=0;dashed=1;" parent="1" source="kOZsztwYuCCZvmPycqAU-350" target="kOZsztwYuCCZvmPycqAU-361" edge="1">
          <mxGeometry relative="1" as="geometry" />
        </mxCell>
        <mxCell id="kOZsztwYuCCZvmPycqAU-365" style="edgeStyle=orthogonalEdgeStyle;rounded=0;orthogonalLoop=1;jettySize=auto;html=1;" parent="1" source="kOZsztwYuCCZvmPycqAU-363" target="kOZsztwYuCCZvmPycqAU-240" edge="1">
          <mxGeometry relative="1" as="geometry" />
        </mxCell>
        <mxCell id="kOZsztwYuCCZvmPycqAU-363" value="ΑΝΟΙΓΜΑ ΤΟΥ ΑΡΧΕΙΟΥ ΜΕ ΒΑΣΗ ΤΟ ΟΝΟΜΑ ΤΟΥ ΧΡΗΣΤΗ ΠΟΥ ΕΠΙΛΕΧΤΗΚΕ" style="rounded=1;whiteSpace=wrap;html=1;shadow=1;labelBackgroundColor=none;strokeWidth=1;fontFamily=Verdana;fontSize=8;align=center;" parent="1" vertex="1">
          <mxGeometry x="533" y="2631" width="110" height="60" as="geometry" />
        </mxCell>
        <mxCell id="kOZsztwYuCCZvmPycqAU-384" style="edgeStyle=orthogonalEdgeStyle;rounded=0;orthogonalLoop=1;jettySize=auto;html=1;entryX=0.5;entryY=0;entryDx=0;entryDy=0;" parent="1" source="kOZsztwYuCCZvmPycqAU-382" target="kOZsztwYuCCZvmPycqAU-246" edge="1">
          <mxGeometry relative="1" as="geometry" />
        </mxCell>
        <mxCell id="kOZsztwYuCCZvmPycqAU-387" style="edgeStyle=orthogonalEdgeStyle;rounded=0;orthogonalLoop=1;jettySize=auto;html=1;entryX=0;entryY=0.5;entryDx=0;entryDy=0;" parent="1" source="kOZsztwYuCCZvmPycqAU-382" target="kOZsztwYuCCZvmPycqAU-386" edge="1">
          <mxGeometry relative="1" as="geometry" />
        </mxCell>
        <mxCell id="kOZsztwYuCCZvmPycqAU-382" value="ΕΜΦΑΝΙΣΗ ΤΟΥ ΚΟΥΜΠΙΟΥ ΈΞΑΓΩΓΗ ΔΕΔΟΜΕΝΩΝ&#39;" style="rounded=1;whiteSpace=wrap;html=1;shadow=1;labelBackgroundColor=none;strokeWidth=1;fontFamily=Verdana;fontSize=8;align=center;" parent="1" vertex="1">
          <mxGeometry x="533" y="3193" width="110" height="60" as="geometry" />
        </mxCell>
        <mxCell id="kOZsztwYuCCZvmPycqAU-389" style="edgeStyle=orthogonalEdgeStyle;rounded=0;orthogonalLoop=1;jettySize=auto;html=1;entryX=0;entryY=0.5;entryDx=0;entryDy=0;" parent="1" source="kOZsztwYuCCZvmPycqAU-386" target="kOZsztwYuCCZvmPycqAU-388" edge="1">
          <mxGeometry relative="1" as="geometry" />
        </mxCell>
        <mxCell id="kOZsztwYuCCZvmPycqAU-386" value="Ο ΧΡΗΣΤΗΣ ΠΑΤΑΕΙ ΤΟ ΚΟΥΜΠΙ ΈΞΑΓΩΓΗ ΔΕΔΟΜΕΝΩΝ&#39;" style="whiteSpace=wrap;html=1;rounded=0;shadow=1;labelBackgroundColor=none;strokeWidth=1;fontFamily=Verdana;fontSize=8;align=center;" parent="1" vertex="1">
          <mxGeometry x="698" y="3203" width="120" height="40" as="geometry" />
        </mxCell>
        <mxCell id="kOZsztwYuCCZvmPycqAU-388" value="ΑΝΤΙΓΡΑΦΗ ΤΟΥ ΑΡΧΕΙΟΥ ΧΡΗΣΤΗ ΣΤΟ ΦΑΚΕΛΟ DOWNLOAD ΤΟΥ ΧΡΗΣΤΗ (&lt;font color=&quot;#ff0000&quot;&gt;downloads_path = f&quot;C:/Users/{getpass.getuser()}/Downloads&quot;&lt;/font&gt;)" style="rounded=1;whiteSpace=wrap;html=1;shadow=1;labelBackgroundColor=none;strokeWidth=1;fontFamily=Verdana;fontSize=8;align=center;" parent="1" vertex="1">
          <mxGeometry x="905.5" y="3188" width="195" height="70" as="geometry" />
        </mxCell>
        <mxCell id="kOZsztwYuCCZvmPycqAU-391" style="edgeStyle=orthogonalEdgeStyle;rounded=0;orthogonalLoop=1;jettySize=auto;html=1;entryX=0.5;entryY=0;entryDx=0;entryDy=0;" parent="1" source="kOZsztwYuCCZvmPycqAU-392" target="kOZsztwYuCCZvmPycqAU-401" edge="1">
          <mxGeometry relative="1" as="geometry">
            <mxPoint x="-423" y="2664" as="targetPoint" />
          </mxGeometry>
        </mxCell>
        <mxCell id="kOZsztwYuCCZvmPycqAU-392" value="Ο ΧΡΗΣΤΗΣ ΠΑΤΑΕΙ ΤΟ ΚΟΥΜΠΙ &#39;ΝΕΟΣ ΧΡΗΣΤΗΣ&#39;" style="whiteSpace=wrap;html=1;rounded=0;shadow=1;labelBackgroundColor=none;strokeWidth=1;fontFamily=Verdana;fontSize=8;align=center;" parent="1" vertex="1">
          <mxGeometry x="-276" y="2691" width="120" height="40" as="geometry" />
        </mxCell>
        <mxCell id="kOZsztwYuCCZvmPycqAU-410" style="edgeStyle=orthogonalEdgeStyle;rounded=0;orthogonalLoop=1;jettySize=auto;html=1;entryX=0;entryY=0.5;entryDx=0;entryDy=0;" parent="1" source="kOZsztwYuCCZvmPycqAU-401" target="kOZsztwYuCCZvmPycqAU-404" edge="1">
          <mxGeometry relative="1" as="geometry" />
        </mxCell>
        <mxCell id="kOZsztwYuCCZvmPycqAU-411" value="ΟΧΙ" style="edgeLabel;html=1;align=center;verticalAlign=middle;resizable=0;points=[];fontSize=9;" parent="kOZsztwYuCCZvmPycqAU-410" vertex="1" connectable="0">
          <mxGeometry x="-0.0455" relative="1" as="geometry">
            <mxPoint x="-17" y="-9" as="offset" />
          </mxGeometry>
        </mxCell>
        <mxCell id="kOZsztwYuCCZvmPycqAU-412" style="edgeStyle=orthogonalEdgeStyle;rounded=0;orthogonalLoop=1;jettySize=auto;html=1;entryX=0.5;entryY=0;entryDx=0;entryDy=0;" parent="1" source="kOZsztwYuCCZvmPycqAU-401" target="kOZsztwYuCCZvmPycqAU-403" edge="1">
          <mxGeometry relative="1" as="geometry" />
        </mxCell>
        <mxCell id="kOZsztwYuCCZvmPycqAU-401" value="Ο ΧΡΗΣΤΗΣ ΥΠΑΡΧΕΙ ΗΔΗ;&lt;div&gt;(&lt;font color=&quot;#ff0000&quot;&gt;username.csv&lt;/font&gt;)&lt;br&gt;&lt;/div&gt;" style="rhombus;whiteSpace=wrap;html=1;rounded=0;shadow=1;labelBackgroundColor=none;strokeWidth=1;fontFamily=Verdana;fontSize=8;align=center;" parent="1" vertex="1">
          <mxGeometry x="-456" y="2754" width="130" height="80" as="geometry" />
        </mxCell>
        <mxCell id="kOZsztwYuCCZvmPycqAU-415" style="edgeStyle=orthogonalEdgeStyle;rounded=0;orthogonalLoop=1;jettySize=auto;html=1;entryX=0.5;entryY=1;entryDx=0;entryDy=0;jumpStyle=arc;" parent="1" source="kOZsztwYuCCZvmPycqAU-403" target="kOZsztwYuCCZvmPycqAU-294" edge="1">
          <mxGeometry relative="1" as="geometry" />
        </mxCell>
        <mxCell id="kOZsztwYuCCZvmPycqAU-403" value="ΕΜΦΑΝΙΣΗ ΕΙΔΟΠΟΙΣΗΣ ΟΤΙ Ο ΧΡΗΣΤΗΣ ΥΠΑΡΧΕΙ ΗΔΗ" style="rounded=1;whiteSpace=wrap;html=1;shadow=1;labelBackgroundColor=none;strokeWidth=1;fontFamily=Verdana;fontSize=8;align=center;" parent="1" vertex="1">
          <mxGeometry x="-446" y="2871" width="110" height="60" as="geometry" />
        </mxCell>
        <mxCell id="kOZsztwYuCCZvmPycqAU-414" style="edgeStyle=orthogonalEdgeStyle;rounded=0;orthogonalLoop=1;jettySize=auto;html=1;entryX=0;entryY=0.5;entryDx=0;entryDy=0;jumpStyle=arc;" parent="1" source="kOZsztwYuCCZvmPycqAU-404" target="kOZsztwYuCCZvmPycqAU-240" edge="1">
          <mxGeometry relative="1" as="geometry" />
        </mxCell>
        <mxCell id="kOZsztwYuCCZvmPycqAU-404" value="ΔΗΜΙΟΥΡΓΙΑ ΑΡΧΕΙΟΥ ΜΕ ΒΑΣΗ ΤΟ ΟΝOΜΑ ΤΟΥ ΧΡΗΣΤΗ ΠΟΥ ΔΩΘΗΚΕ (&lt;font color=&quot;#ff0000&quot;&gt;username.csv&lt;/font&gt;) ΚΑΙ ΑΝΟΙΓΜΑ ΤΟΥ ΑΡΧΕΙΟΥ" style="rounded=1;whiteSpace=wrap;html=1;shadow=1;labelBackgroundColor=none;strokeWidth=1;fontFamily=Verdana;fontSize=8;align=center;" parent="1" vertex="1">
          <mxGeometry x="-216" y="2764" width="110" height="60" as="geometry" />
        </mxCell>
        <mxCell id="kOZsztwYuCCZvmPycqAU-409" style="edgeStyle=orthogonalEdgeStyle;rounded=0;orthogonalLoop=1;jettySize=auto;html=1;" parent="1" source="kOZsztwYuCCZvmPycqAU-405" target="kOZsztwYuCCZvmPycqAU-392" edge="1">
          <mxGeometry relative="1" as="geometry" />
        </mxCell>
        <mxCell id="kOZsztwYuCCZvmPycqAU-405" value="Ο ΧΡΗΣΤΗΣ ΕΙΣΑΓΕΙ ΤΟ ΟΝΟΜΑ ΣΤΟ ΠΕΔΙΟ &#39;ΕΙΣΑΓΕΤΕ ΟΝΟΜΑ&#39;" style="whiteSpace=wrap;html=1;rounded=0;shadow=1;labelBackgroundColor=none;strokeWidth=1;fontFamily=Verdana;fontSize=8;align=center;" parent="1" vertex="1">
          <mxGeometry x="-77" y="2691" width="120" height="40" as="geometry" />
        </mxCell>
        <mxCell id="kOZsztwYuCCZvmPycqAU-419" style="edgeStyle=orthogonalEdgeStyle;rounded=0;orthogonalLoop=1;jettySize=auto;html=1;entryX=0.5;entryY=0;entryDx=0;entryDy=0;" parent="1" source="kOZsztwYuCCZvmPycqAU-417" target="kOZsztwYuCCZvmPycqAU-281" edge="1">
          <mxGeometry relative="1" as="geometry" />
        </mxCell>
        <mxCell id="kOZsztwYuCCZvmPycqAU-417" value="ΕΜΦΑΝΙΣΗ ΕΙΔΟΠΟΙΗΣΗΣ &#39;ΔΕΝ ΥΠΑΡΧΟΥΝ ΧΡΗΣΤΕΣ ΠΑΡΑΚΑΛΩ ΔΗΜΙΟΥΡΓΗΣΤΕ ΧΡΗΣΤΗ ΓΙΑ ΝΑ ΣΥΝΕΧΙΣΕΤΕ&#39;" style="rounded=1;whiteSpace=wrap;html=1;shadow=1;labelBackgroundColor=none;strokeWidth=1;fontFamily=Verdana;fontSize=8;align=center;" parent="1" vertex="1">
          <mxGeometry x="237.5" y="2412" width="110" height="60" as="geometry" />
        </mxCell>
      </root>
    </mxGraphModel>
  </diagram>
</mxfile>
